<?xml version="1.0" encoding="utf-8"?>
<!-- Generator: Adobe Illustrator 25.2.0, SVG Export Plug-In . SVG Version: 6.00 Build 0)  -->
<svg version="1.1" id="Ebene_2" xmlns="http://www.w3.org/2000/svg" xmlns:xlink="http://www.w3.org/1999/xlink" x="0px" y="0px"
	 viewBox="0 0 1218.9 425.2" style="enable-background:new 0 0 1218.9 425.2;" xml:space="preserve">
<style type="text/css">
	.st0{fill:#00FFD9;}
	.st1{fill:#FF00B5;}
</style>
<g>
	<g>
		<path class="st0" d="M186.13,32.5l-12.29-0.23L104.91,152l-22.58,4.23l-10.72,17.68l-8.78,1.91l-7.55,9.4l39.34-5.5L17.95,307.15
			l12.25-3.53l39.57-61.95l23.08-8.48l29.56-59.12l37.33-6.99l-0.08,32.74l8.56,8.4l-0.94,179.49l10.36,13.19l0.28-16.56
			l14.95-23.71l1.26-119.89l-7.07-7.54l0.04-70.23l241.09-40.49l1.17-0.21l14.93-14.94l21.42-4.94l5.47-5.02l-285.07,45.06V32.5z
			 M159.75,76.94l0.16,68.31l-25.12,3.14l-6.12-13.19L159.75,76.94z"/>
	</g>
	<g>
		<path class="st0" d="M324.24,252.01l51.69-48.96v-15.11l-17.47-12.34l-131.09,22.01l-1.07,19.32l13.65,14.13l0.19,169.83
			l10.64-8.91v-10.07l17.86-12.94v-69.73l35.31-31.91l70.6,77.96l17.68-0.15l15.3,14.51l16.02,0.08L324.24,252.01z M272.91,228.97
			l-0.03-0.82c-0.19-6.19,0.17-13.06,0.16-16.16l71.98-11.69v16.43l-76.66,65.67v-48.03L272.91,228.97z"/>
	</g>
	<path class="st0" d="M489.33,82.88l-0.33,24.35l-17.38,17.64l-0.32,36.11l-59.1,57.82v8.47l-29.22,29.75l27.16,31.32h8.74
		l55.44,56.08l6.84-5.94l0.16-11.78l15.07-11.78l-0.52-237.43L489.33,82.88z M469.22,187.8v114.24l-54.56-59.44L469.22,187.8z"/>
	<polygon class="st0" points="633.47,164.58 624.53,175.01 562.77,186.68 552.45,202.35 552.67,244.04 591.45,235.89 606.31,244.79 
		615.45,243.11 626.64,250.69 552.51,267.24 552.51,304.77 617.46,292.78 629.44,303.01 642.43,300.79 649.75,309.02 525.01,333.06 
		525.41,251.18 531.29,240.72 531.45,192.13 544.6,169.11 650.08,151.43 642.58,161.27 	"/>
	<polygon class="st1" points="1200.94,120.75 1194.04,116.35 1182.44,117.76 1167.65,109.44 1041.09,131.42 1041.72,86.04 
		1035.43,91.43 1034.98,106.05 1017.33,123.89 1016.9,135.82 978.79,144.15 967.97,156.41 945.91,161.27 937.13,169.11 
		1016.85,153.38 1016.8,175.37 1016.75,196.73 1016.48,312.31 1016.3,387.95 1026.64,376.24 1027.58,362.19 1042.1,346.56 
		1042.69,283.67 1042.03,148.38 	"/>
	<polygon class="st1" points="813.04,135.22 813.04,147.83 794.43,163.46 792.32,333.37 714.36,170.93 708.13,169.95 687.5,130.71 
		687.5,95.69 677.37,78.73 674.94,345.68 679.76,345.68 686.48,329.35 686.48,310.19 704.73,282.49 704.73,204.29 733.76,262.71 
		735.82,289.08 783.35,390.36 798.32,390.05 798.46,382.78 814.88,363.84 816.03,265.58 823.03,252.55 824.7,127.66 	"/>
	<polygon class="st1" points="941.55,278.23 941.55,247.91 935.82,239.91 908.12,262.76 908.12,217.32 885.91,195.74 885.91,184.57 
		878.33,177.94 878.33,275.28 884.3,282.61 884.3,296.04 891.35,301.45 916.15,279.55 918.04,388.83 928.65,380.48 928.65,368.2 
		945.61,351.58 945.61,282.33 	"/>
	<polygon class="st1" points="1170.03,317.86 1161.85,311.98 1114.33,321.38 1104.02,310.64 1104.26,267.71 1142.98,261.12 
		1157.76,246.6 1167.11,245.56 1177.48,232.93 1104.04,244.72 1104.04,207.18 1168.91,193.45 1176.21,179.63 1183.36,178.38 
		1191.21,168.01 1075.66,190.02 1075.51,270.79 1080.46,279.75 1080.54,330.15 1096.14,345.9 1185.88,324.99 1196.55,310.91 	"/>
	<path class="st1" d="M927.63,111.41l-17.84,0.11l-11.17,13.38l-11.71-13.71l-18.6,0.22l-8.24,11.8l0.22,17.78l9.38,12.42l7.26-0.08
		l17.18,16.61l0.16,5.4l4.26,4.26l38.55-38.49l0.25-18.61L927.63,111.41z M914.63,150.74l-5.68,5.68l-10.47-10.47l-10.47,10.47
		l-5.68-5.68l10.47-10.47l-10.47-10.47l5.68-5.68l10.47,10.47l10.47-10.47l5.68,5.68l-10.47,10.47L914.63,150.74z"/>
</g>
</svg>
