<?xml version="1.0" standalone="no"?>
<!DOCTYPE svg PUBLIC "-//W3C//DTD SVG 20010904//EN"
 "http://www.w3.org/TR/2001/REC-SVG-20010904/DTD/svg10.dtd">
<svg version="1.0" xmlns="http://www.w3.org/2000/svg"
 width="700.000000pt" height="700.000000pt" viewBox="0 0 700.000000 700.000000"
 preserveAspectRatio="xMidYMid meet">
<metadata>
Created by potrace 1.14, written by Peter Selinger 2001-2017
</metadata>
<g transform="translate(0.000000,700.000000) scale(0.100000,-0.100000)"
fill="#000000" stroke="none">
<path d="M2755 5680 c-3 -5 -1 -10 4 -10 6 0 11 5 11 10 0 6 -2 10 -4 10 -3 0
-8 -4 -11 -10z"/>
<path d="M3345 5618 c-49 -4 -137 -15 -195 -24 -58 -9 -112 -18 -120 -19 -8
-1 -23 -6 -32 -10 -10 -4 -25 -4 -34 -1 -10 4 -13 2 -8 -6 5 -7 -1 -9 -19 -6
-15 3 -24 1 -21 -3 4 -7 -57 -24 -72 -19 -4 1 -10 -2 -13 -7 -10 -15 -203 -83
-215 -76 -6 3 -8 2 -3 -2 7 -8 -207 -127 -230 -128 -7 0 -11 -3 -8 -5 3 -3
-25 -26 -63 -50 -70 -47 -127 -91 -201 -154 -24 -21 -48 -35 -54 -31 -5 3 -7
2 -4 -4 4 -6 -27 -43 -68 -83 -41 -39 -75 -74 -75 -77 0 -7 -67 -82 -72 -80
-2 1 -2 0 -1 -2 1 -2 -10 -20 -26 -40 -58 -74 -155 -229 -206 -331 -153 -305
-225 -610 -225 -952 0 -276 41 -513 130 -750 23 -60 38 -113 34 -120 -4 -6 -3
-8 3 -5 5 3 23 -22 39 -56 16 -34 51 -99 77 -145 27 -45 45 -87 42 -92 -4 -6
-1 -9 5 -8 7 2 17 -6 23 -16 7 -11 22 -31 34 -45 12 -13 20 -28 17 -33 -3 -4
-1 -8 4 -8 12 0 128 -150 124 -162 -1 -5 2 -7 7 -4 10 7 33 -18 26 -27 -3 -4
-2 -5 1 -2 4 2 45 -32 92 -76 47 -45 124 -110 171 -146 47 -36 85 -69 83 -75
-1 -5 2 -7 8 -3 5 3 29 -7 52 -23 24 -16 58 -37 76 -46 19 -10 30 -21 26 -28
-4 -7 -3 -8 4 -4 10 6 89 -27 102 -43 3 -3 10 -7 15 -8 6 -2 60 -23 120 -48
61 -24 116 -45 123 -45 6 0 12 -4 12 -10 0 -5 7 -6 17 -3 12 5 14 3 8 -7 -5
-8 -4 -11 2 -7 6 4 63 -7 128 -23 64 -17 128 -30 141 -30 13 0 24 -3 24 -7 0
-9 -4 -9 280 -18 168 -6 229 -4 340 10 171 22 169 22 209 34 18 6 36 10 40 9
3 -1 13 2 21 5 8 3 38 12 65 20 141 41 343 129 476 208 30 17 60 32 66 32 7 0
11 2 8 5 -2 3 24 24 58 48 34 24 73 51 86 61 13 10 29 17 35 15 6 -2 8 0 4 3
-4 4 20 30 52 58 51 43 144 134 215 211 54 59 175 231 233 331 21 36 42 62 46
58 4 -4 4 0 0 10 -4 11 -1 17 7 17 7 0 10 3 6 6 -3 4 7 32 22 63 16 31 43 97
62 146 18 50 36 92 39 95 3 3 6 14 7 26 1 11 7 34 14 50 6 16 13 38 14 50 2
11 8 39 15 63 49 182 64 529 34 761 -42 323 -164 648 -339 902 -30 44 -55 84
-55 89 0 5 -4 9 -8 9 -4 0 -24 21 -43 48 -54 70 -164 186 -250 263 -43 37 -74
71 -71 75 4 4 3 5 -3 2 -13 -8 -157 97 -147 107 4 4 2 5 -4 3 -13 -4 -144 71
-144 83 0 5 -3 8 -7 7 -12 -4 -73 23 -73 32 0 3 -6 7 -12 7 -24 1 -118 50
-110 58 4 5 2 5 -5 1 -7 -3 -39 4 -72 18 -33 13 -74 27 -91 31 -18 4 -27 11
-24 17 4 6 3 8 -3 5 -6 -4 -61 7 -124 22 -213 54 -463 76 -674 59z m338 -94
c42 -4 75 -10 72 -13 -2 -4 10 -6 27 -5 17 1 57 -3 89 -9 51 -9 57 -12 46 -26
-11 -14 -10 -14 5 -2 19 14 66 10 117 -11 14 -6 29 -11 33 -10 11 3 182 -59
193 -69 5 -5 17 -9 26 -9 10 0 25 -7 33 -16 9 -8 16 -12 16 -9 0 12 209 -103
296 -162 45 -32 80 -61 77 -67 -3 -5 -2 -6 4 -3 14 9 130 -88 237 -197 139
-143 337 -420 320 -448 -4 -6 -3 -8 3 -5 14 9 103 -183 147 -313 149 -444 139
-943 -26 -1372 -16 -43 -34 -78 -39 -78 -6 0 -8 -4 -4 -10 11 -18 -155 -320
-176 -320 -5 0 -8 -4 -6 -9 4 -15 -103 -152 -113 -146 -6 3 -8 0 -5 -7 9 -24
-257 -284 -278 -271 -5 3 -7 1 -4 -5 12 -18 -234 -189 -255 -176 -6 4 -8 3 -5
-4 7 -10 -170 -107 -208 -114 -11 -1 -23 -7 -26 -11 -3 -5 -64 -28 -135 -52
-141 -47 -315 -86 -409 -90 -33 -2 -68 -6 -78 -10 -56 -23 -575 18 -585 46 -2
5 -8 7 -13 4 -15 -10 -79 6 -72 18 3 6 1 7 -5 3 -14 -8 -132 25 -132 37 0 4
-4 5 -10 2 -5 -3 -24 0 -42 8 -18 8 -59 25 -90 37 -32 12 -58 27 -58 33 0 6
-3 8 -6 4 -9 -9 -144 61 -144 75 0 6 -3 8 -6 5 -8 -7 -84 33 -84 44 0 4 -9 9
-21 12 -12 3 -18 10 -14 16 3 6 0 9 -7 6 -19 -7 -210 143 -202 158 4 7 4 9 -1
5 -9 -9 -81 52 -77 65 1 5 -1 6 -6 3 -10 -6 -138 134 -135 146 2 4 -2 8 -8 8
-5 0 -7 5 -3 12 4 6 3 8 -4 5 -13 -9 -116 129 -107 143 4 6 1 9 -7 8 -7 -2
-12 5 -12 14 1 10 -2 16 -6 13 -12 -7 -42 44 -34 57 5 7 3 8 -6 3 -10 -6 -12
-4 -7 9 4 9 3 15 -2 12 -9 -6 -26 22 -23 37 1 4 -2 7 -6 7 -15 0 -111 213
-151 336 -107 328 -130 684 -65 1019 8 44 18 87 21 95 3 8 7 22 8 30 17 97
133 395 164 420 3 3 7 12 9 20 7 29 98 173 174 274 42 56 120 147 175 202 95
96 261 234 281 234 6 0 12 4 14 8 7 17 69 53 79 46 8 -4 9 -3 5 4 -8 14 30 35
47 26 6 -4 9 -4 5 1 -11 11 29 38 44 29 6 -4 8 -3 5 3 -9 15 190 106 329 152
143 47 242 68 419 91 78 10 301 12 398 4z"/>
<path d="M3337 5453 c-4 -3 -19 -7 -34 -9 -15 -1 -48 -6 -73 -9 -25 -4 -58 -9
-75 -11 -35 -4 -55 -8 -113 -23 -23 -7 -47 -9 -52 -6 -6 3 -10 2 -10 -3 0 -12
-118 -44 -132 -36 -6 4 -8 3 -5 -3 7 -12 -50 -36 -63 -28 -5 3 -10 1 -12 -3
-6 -15 -140 -72 -152 -65 -6 3 -8 2 -4 -2 10 -11 -110 -77 -124 -69 -7 4 -8 2
-4 -5 4 -6 0 -14 -11 -18 -21 -8 -68 -39 -99 -66 -12 -10 -27 -17 -35 -15 -7
2 -13 -2 -14 -9 0 -7 -17 -25 -37 -40 -85 -65 -179 -154 -254 -240 -43 -51
-83 -93 -88 -93 -5 0 -7 -3 -4 -6 4 -3 -18 -39 -48 -80 -29 -42 -66 -98 -80
-124 -15 -27 -31 -47 -37 -43 -6 3 -7 1 -3 -5 7 -12 -29 -92 -46 -103 -5 -3
-10 -10 -9 -15 1 -24 -12 -53 -22 -47 -5 3 -7 2 -4 -4 6 -9 -8 -50 -44 -138
-7 -16 -13 -34 -14 -40 -2 -5 -14 -57 -29 -115 -45 -178 -59 -320 -53 -540 4
-134 12 -228 26 -299 11 -58 18 -108 15 -113 -3 -4 0 -8 5 -8 6 0 11 -7 11
-15 0 -36 77 -241 135 -361 87 -179 245 -408 347 -502 15 -14 25 -29 21 -35
-3 -6 -1 -7 4 -4 13 8 46 -27 36 -37 -5 -4 -3 -6 4 -4 15 4 105 -71 98 -83 -3
-5 1 -6 9 -3 9 4 18 -1 22 -10 3 -9 10 -16 16 -16 10 0 91 -61 96 -72 2 -5 7
-8 12 -8 4 0 48 -24 97 -54 50 -29 100 -57 112 -61 12 -3 18 -11 15 -17 -4 -6
-2 -8 3 -5 13 8 165 -57 156 -67 -4 -4 0 -4 9 -1 9 4 29 0 45 -8 16 -9 45 -18
66 -22 22 -4 34 -11 30 -18 -3 -6 -1 -7 5 -3 6 4 31 2 54 -5 24 -6 102 -22
173 -35 115 -20 155 -23 350 -20 121 2 245 8 275 14 30 7 69 14 85 16 17 2 37
6 46 10 9 4 20 6 25 5 5 -1 16 0 24 3 8 3 67 22 130 43 63 20 171 64 240 97
69 34 128 60 133 60 4 -1 7 2 7 6 0 5 17 17 38 28 20 10 39 21 42 24 11 11
160 120 164 120 2 0 19 15 38 33 88 84 143 132 150 130 4 -2 7 1 5 6 -1 5 19
33 44 62 25 30 74 92 108 139 35 47 68 88 73 91 5 3 9 9 9 13 -3 20 0 26 9 21
6 -4 10 -3 9 2 -3 17 1 32 14 45 23 24 125 252 161 360 20 59 44 148 54 198
10 50 20 88 23 86 7 -7 9 52 13 341 2 151 -1 270 -5 267 -5 -3 -9 7 -9 23 0
68 -85 376 -125 453 -7 14 -15 34 -17 45 -1 11 -6 22 -9 25 -4 3 -21 34 -39
70 -47 93 -102 182 -173 278 -34 46 -61 88 -59 93 1 5 -2 8 -6 7 -5 -2 -42 32
-82 75 -40 42 -113 112 -164 154 -50 42 -90 81 -88 86 1 5 -2 5 -8 2 -7 -4
-21 2 -33 13 -12 11 -32 25 -45 31 -12 7 -20 17 -16 23 4 7 3 8 -5 4 -6 -4
-23 1 -39 12 -15 10 -66 38 -114 63 -47 24 -84 48 -81 53 3 5 1 6 -4 3 -6 -4
-56 11 -112 33 -55 22 -106 40 -111 40 -6 0 -8 4 -5 10 3 5 0 7 -8 4 -8 -3
-47 5 -88 16 -78 22 -81 23 -171 35 -32 4 -58 10 -58 14 0 3 -93 8 -208 9
-114 2 -210 6 -213 8 -3 2 -9 1 -12 -3z m451 -113 c45 -7 82 -16 82 -19 0 -3
15 -7 34 -8 73 -3 370 -108 359 -126 -3 -6 -1 -7 5 -3 10 6 89 -27 102 -43 3
-3 11 -7 18 -9 47 -9 311 -199 369 -265 17 -20 33 -34 35 -31 6 6 103 -109
100 -119 -1 -5 2 -6 7 -3 12 8 53 -49 43 -59 -4 -5 -2 -5 4 -2 14 8 57 -50 48
-65 -4 -6 -3 -8 3 -5 6 4 16 1 22 -7 9 -11 9 -15 -1 -19 -9 -4 -7 -6 4 -6 18
-1 90 -114 151 -236 46 -93 109 -263 102 -275 -4 -6 -2 -10 3 -10 12 0 50
-164 67 -295 8 -60 15 -165 15 -232 0 -197 -43 -471 -79 -501 -9 -8 -10 -11
-3 -7 6 3 12 2 12 -4 0 -16 -61 -185 -71 -195 -5 -6 -9 -18 -9 -27 0 -10 -7
-25 -16 -33 -8 -9 -12 -16 -9 -16 10 0 -76 -158 -138 -250 -76 -116 -165 -222
-179 -214 -7 4 -8 3 -4 -4 12 -20 -214 -230 -234 -217 -6 4 -9 1 -8 -5 5 -20
-158 -126 -297 -194 -159 -78 -190 -90 -206 -80 -7 4 -10 3 -6 -3 8 -12 -137
-58 -153 -48 -5 3 -10 1 -10 -6 0 -6 -8 -9 -20 -6 -11 3 -20 1 -20 -5 0 -6
-11 -8 -25 -6 -13 3 -22 2 -20 -2 3 -4 -21 -11 -53 -15 -31 -4 -73 -9 -92 -12
-97 -14 -343 -12 -460 3 -69 9 -127 19 -130 22 -3 4 -21 8 -40 10 -19 1 -37 6
-40 10 -3 4 -18 8 -34 9 -16 1 -37 5 -45 9 -9 4 -18 8 -21 8 -43 10 -100 32
-100 38 0 4 -10 8 -23 8 -33 0 -247 109 -353 179 -112 75 -230 174 -226 190 1
7 -1 10 -6 7 -14 -9 -129 108 -209 214 -24 30 -47 60 -52 66 -31 38 -62 95
-56 104 3 6 1 9 -5 8 -15 -4 -112 172 -105 190 3 7 1 11 -4 8 -14 -9 -121 289
-121 337 0 8 3 17 8 20 4 2 2 3 -5 1 -13 -3 -28 71 -44 221 -11 95 -7 333 6
435 17 126 84 381 106 405 5 5 9 15 9 22 0 27 73 172 83 166 6 -3 7 -1 3 6
-20 32 265 434 291 411 4 -3 7 4 9 14 3 22 142 155 162 156 6 0 12 4 12 9 0
11 135 111 149 111 5 0 11 4 13 8 7 16 78 53 89 46 8 -4 9 -3 5 4 -7 12 171
108 181 98 3 -3 12 2 21 10 8 9 23 13 34 11 10 -3 16 -1 13 3 -7 11 92 43 106
34 7 -4 9 -3 6 3 -7 11 106 45 154 47 16 1 29 4 29 7 0 7 62 17 155 25 33 3
62 8 64 10 9 9 363 -4 439 -16z"/>
<path d="M3470 5297 c-15 -8 -31 -30 -42 -62 -10 -28 -18 -51 -17 -53 2 -9
-25 -112 -30 -112 -3 0 -7 -11 -7 -25 -1 -14 -5 -33 -9 -43 -5 -9 -9 -21 -10
-27 -5 -40 -19 -86 -26 -90 -4 -3 -6 -12 -2 -20 3 -8 0 -15 -7 -15 -6 0 -9 -4
-6 -9 3 -4 -10 -63 -29 -130 -19 -67 -35 -129 -35 -137 0 -8 -4 -12 -10 -9 -5
3 -8 0 -5 -7 3 -7 1 -26 -3 -43 l-9 -30 -12 37 c-7 21 -10 42 -7 47 4 5 1 11
-5 13 -6 2 -11 22 -12 45 -1 22 -5 39 -8 37 -9 -5 -21 44 -14 56 3 4 1 10 -5
12 -5 1 -11 15 -12 30 -2 18 -6 24 -12 18 -6 -6 -21 -10 -33 -10 -17 0 -28 -9
-37 -30 -7 -17 -16 -27 -21 -23 -4 5 -5 2 -1 -5 9 -14 -33 -175 -46 -180 -5
-2 -6 -8 -3 -12 7 -11 -26 -134 -37 -138 -5 -2 -5 -8 -2 -14 3 -5 -2 -16 -12
-24 -11 -9 -13 -12 -5 -8 11 5 13 2 8 -17 -4 -13 -7 -28 -7 -32 0 -5 -4 -6 -9
-3 -4 3 -6 -6 -3 -19 2 -15 0 -25 -7 -25 -7 0 -10 -4 -7 -8 6 -10 -27 -135
-34 -128 -3 2 -6 -15 -7 -37 -2 -23 -7 -43 -13 -45 -6 -2 -8 -7 -5 -11 2 -5
-9 -55 -26 -112 -17 -57 -32 -115 -35 -129 -3 -14 -9 -27 -15 -28 -5 -2 -7 -8
-3 -13 6 -11 -47 -203 -58 -207 -4 -2 -6 -8 -2 -13 5 -8 -6 -55 -23 -99 -4 -8
-7 -18 -8 -22 -2 -5 -3 -9 -4 -10 -2 -2 -4 -14 -6 -28 -2 -14 -19 -79 -38
-145 -19 -66 -42 -153 -53 -193 -12 -49 -22 -71 -31 -68 -7 3 -15 1 -18 -5 -4
-5 -1 -8 7 -7 13 3 14 -32 1 -62 -3 -8 -7 -22 -9 -30 -2 -8 -11 -45 -20 -82
l-18 -68 -150 1 c-102 0 -155 4 -165 12 -11 9 -13 9 -8 0 6 -9 -9 -13 -50 -15
-57 -3 -58 -3 -61 -35 -5 -50 16 -55 225 -55 167 0 184 -1 178 -16 -4 -10 -9
-29 -12 -45 -5 -23 -8 -25 -21 -15 -13 11 -14 11 -3 -7 11 -17 9 -33 -10 -95
-12 -41 -24 -83 -26 -94 -2 -10 -15 -57 -29 -105 -44 -146 -42 -181 11 -181
28 0 43 17 51 58 4 18 11 32 16 32 5 0 6 5 3 11 -4 5 1 20 12 31 10 12 12 18
4 13 -10 -6 -11 -2 -6 16 4 13 12 26 16 27 5 2 7 8 4 13 -3 4 2 34 12 66 20
68 20 69 22 89 0 8 5 12 11 9 5 -3 7 0 4 9 -6 15 32 165 45 179 8 8 16 9 95 7
27 -1 44 -5 37 -9 -7 -4 -11 -12 -10 -17 5 -19 -13 -94 -22 -89 -5 4 -7 0 -4
-7 3 -7 -4 -44 -15 -83 -12 -38 -23 -79 -25 -89 -3 -10 -9 -33 -15 -51 -6 -18
-12 -41 -15 -51 -29 -133 -29 -132 -15 -149 19 -22 63 -15 75 12 5 13 17 23
25 24 10 0 11 2 3 6 -14 5 -18 33 -5 33 4 0 7 10 8 23 1 24 48 205 65 247 5
14 11 36 14 50 2 14 12 53 21 88 l17 63 137 -2 c75 -1 142 1 148 5 7 4 12 3
12 -1 0 -5 27 -8 60 -7 56 2 74 -6 50 -21 -6 -4 -8 -11 -5 -16 4 -5 3 -9 -2
-9 -4 0 -9 -14 -9 -32 -1 -18 -6 -34 -12 -36 -5 -1 -8 -12 -5 -22 3 -11 1 -20
-5 -20 -6 0 -8 -9 -5 -20 3 -12 0 -20 -6 -20 -7 0 -10 -4 -7 -8 10 -17 -16
-92 -33 -92 -13 0 -13 -2 -2 -9 11 -7 9 -24 -13 -97 -28 -96 -32 -129 -16
-139 6 -4 8 -9 6 -13 -2 -4 9 -7 24 -8 17 -1 31 5 34 13 3 8 10 12 15 8 5 -3
13 0 17 6 4 8 3 9 -4 5 -7 -4 -12 -3 -12 2 0 12 31 115 38 127 4 6 5 18 4 27
-2 10 2 18 8 18 6 0 9 4 6 8 -7 12 15 93 24 87 4 -2 5 6 3 19 -3 13 0 27 6 30
5 4 7 14 4 23 -4 9 -2 14 3 11 5 -3 10 8 11 26 1 17 7 45 14 61 7 17 11 35 10
42 -1 6 3 14 8 18 6 3 7 13 4 21 -5 14 8 15 101 12 66 -2 106 1 106 7 0 6 3 6
8 0 4 -6 18 -10 32 -9 14 1 31 -3 39 -10 12 -9 13 -8 7 3 -6 9 -5 12 5 9 8 -3
14 -15 13 -27 0 -11 3 -21 8 -21 4 0 8 -7 8 -16 0 -9 -5 -12 -12 -8 -7 4 -8 3
-4 -5 4 -6 12 -9 17 -6 5 4 9 -2 10 -12 0 -10 3 -29 6 -43 3 -14 6 -35 7 -47
1 -11 5 -19 10 -15 5 3 7 -2 3 -10 -3 -9 -2 -19 3 -24 7 -8 60 -198 65 -234 1
-8 6 -23 10 -33 4 -9 4 -25 1 -34 -4 -10 -4 -14 0 -10 4 4 14 2 21 -5 28 -23
51 -16 72 24 11 21 16 36 11 33 -11 -7 -33 67 -34 112 0 17 -4 29 -8 27 -4 -3
-9 3 -10 13 -2 26 -4 36 -12 54 -4 9 -8 27 -10 40 -2 13 -6 31 -9 39 -21 62
-38 131 -32 140 3 5 1 10 -4 10 -15 0 -14 27 2 33 7 3 5 6 -5 6 -20 1 -24 16
-8 26 6 3 10 3 10 -2 0 -4 95 -8 211 -8 l212 0 13 -45 c8 -25 12 -53 10 -63
-2 -9 0 -14 6 -11 5 3 8 0 7 -7 -1 -8 3 -27 9 -42 7 -15 11 -31 11 -35 -1 -4
0 -9 1 -12 4 -13 12 -47 13 -62 1 -10 4 -18 7 -18 6 0 31 -87 35 -120 1 -8 7
-28 14 -43 6 -16 11 -37 11 -47 0 -10 5 -22 10 -25 6 -4 7 -12 4 -18 -4 -7 -4
-9 1 -5 4 4 16 3 25 -2 24 -13 76 36 59 56 -6 7 -12 31 -12 53 -1 21 -5 37 -8
35 -9 -5 -31 85 -24 97 4 5 2 9 -3 9 -12 0 -35 87 -27 101 4 5 2 9 -3 9 -13 0
-44 128 -36 142 4 7 2 8 -4 4 -7 -4 -12 -1 -12 8 0 8 -3 22 -6 31 -6 14 1 16
52 13 54 -3 59 -5 58 -25 0 -13 3 -23 7 -23 4 0 9 -12 12 -27 3 -16 11 -52 19
-81 11 -36 12 -52 4 -52 -6 0 -5 -4 2 -9 7 -4 14 -14 16 -22 1 -8 8 -31 15
-51 7 -21 10 -42 7 -47 -4 -5 -2 -11 4 -13 5 -1 11 -16 14 -33 2 -16 6 -37 9
-45 3 -8 12 -37 20 -64 16 -57 33 -72 72 -62 27 7 27 9 22 54 -7 56 -10 66
-36 156 -11 38 -19 72 -16 74 3 3 1 10 -4 16 -6 6 -12 23 -14 36 -2 14 -7 32
-10 40 -6 15 -47 167 -47 174 0 2 89 4 198 5 108 1 205 2 214 3 22 2 33 50 18
75 -11 16 -26 18 -146 16 -99 -1 -132 2 -128 10 5 8 2 7 -7 0 -17 -17 -61 -17
-78 0 -10 8 -12 8 -7 0 5 -9 -8 -12 -44 -11 -38 0 -50 3 -46 13 2 7 1 16 -4
21 -16 17 -29 84 -17 84 7 0 7 4 -2 9 -8 5 -15 17 -16 28 -1 10 -4 25 -7 33
-16 46 -28 88 -32 110 -6 26 -62 241 -72 274 -5 13 -2 17 7 12 8 -4 7 -2 -2 6
-8 7 -23 43 -32 80 -20 80 -20 81 -4 73 6 -4 5 0 -4 7 -18 14 -83 243 -74 258
3 4 1 10 -4 12 -6 1 -12 14 -14 28 -2 14 -7 32 -10 40 -15 37 -37 142 -32 150
3 6 1 10 -6 10 -6 0 -9 8 -6 20 3 11 1 18 -3 15 -7 -4 -19 40 -26 90 0 6 -3
17 -6 25 -21 57 -29 100 -23 110 5 8 4 11 -3 7 -6 -5 -13 9 -18 35 -9 49 -9
48 -17 68 -4 8 -8 26 -10 40 -2 14 -7 32 -10 40 -7 19 -29 100 -32 120 -1 8
-5 22 -8 30 -18 48 -37 134 -33 147 4 9 2 11 -6 7 -7 -5 -9 0 -6 14 4 12 3 22
-2 22 -4 0 -10 9 -13 20 -4 15 -14 20 -41 20 -31 0 -37 -4 -42 -27 -4 -16 -13
-39 -21 -52 -8 -13 -10 -20 -4 -17 12 8 4 -20 -10 -40 -5 -6 -6 -13 -4 -16 3
-3 0 -18 -6 -34 -14 -33 -15 -39 -18 -74 -2 -23 -3 -23 -11 -5 -20 49 -41 137
-36 151 3 8 2 12 -4 9 -6 -3 -10 3 -10 15 0 13 4 19 12 14 7 -4 8 -3 4 5 -4 6
-11 9 -15 6 -10 -5 -54 152 -46 164 3 5 0 11 -6 13 -7 2 -12 18 -13 36 0 18
-4 32 -8 32 -5 0 -8 8 -8 18 0 9 -7 36 -15 59 -8 22 -12 51 -10 62 2 12 0 19
-4 16 -11 -6 -44 123 -35 137 4 7 2 8 -4 4 -8 -4 -12 0 -12 12 0 10 -8 26 -18
35 -14 13 -22 14 -42 4z m56 -375 c8 -29 13 -56 9 -61 -3 -5 0 -11 5 -13 6 -2
12 -20 13 -40 1 -20 5 -34 8 -32 4 2 9 -6 12 -19 4 -20 43 -165 83 -312 9 -33
17 -64 19 -70 1 -5 5 -23 10 -38 9 -34 -42 -240 -58 -230 -6 3 -7 1 -3 -6 9
-14 -14 -111 -26 -111 -5 0 -6 -4 -3 -10 5 -8 -23 -123 -42 -170 -3 -8 -7 -19
-7 -25 -5 -37 -21 -83 -35 -99 -9 -11 -11 -17 -5 -13 7 4 9 -2 6 -18 -2 -14
-8 -23 -12 -20 -4 2 -5 -7 -2 -22 3 -18 1 -24 -6 -19 -7 4 -10 2 -7 -6 3 -7 1
-26 -4 -43 -9 -29 -9 -29 -12 -5 -1 14 -1 35 -1 48 1 12 -3 20 -8 17 -6 -4
-11 3 -11 14 -2 23 -3 29 -11 51 -10 25 -67 243 -71 270 -2 14 -10 39 -16 55
-7 17 -14 46 -14 66 -1 21 -6 34 -11 31 -5 -3 -7 4 -4 16 3 12 2 22 -2 24 -5
2 -11 14 -13 28 -2 14 -6 32 -10 40 -6 17 -27 105 -27 115 0 3 4 4 8 1 4 -3 8
5 8 17 0 36 26 137 36 137 5 0 6 5 3 10 -3 6 -3 16 2 23 7 12 9 17 11 50 1 9
10 17 20 18 10 0 12 3 5 6 -7 2 -13 11 -13 19 0 9 4 13 9 10 4 -3 6 6 3 19 -3
19 0 25 14 25 13 0 15 3 7 8 -10 6 -1 52 37 193 28 101 53 193 57 204 4 15 9
8 19 -30 8 -28 21 -74 30 -103z m-412 -433 c-3 -5 -1 -9 4 -9 5 0 15 -26 22
-57 8 -32 15 -65 18 -73 12 -43 13 -80 3 -80 -6 0 -8 -7 -4 -15 3 -9 -3 -23
-13 -31 -11 -9 -13 -13 -6 -9 14 7 16 -11 2 -20 -6 -4 -10 -12 -8 -18 4 -20
-24 -117 -32 -112 -4 2 -5 -7 -2 -20 2 -15 0 -25 -7 -25 -7 0 -9 -5 -6 -10 10
-16 -5 -51 -18 -44 -9 5 -9 4 -1 -5 8 -9 7 -27 -5 -69 -8 -31 -19 -58 -23 -60
-4 -2 -4 -10 -1 -18 3 -8 -2 -17 -12 -20 -13 -6 -14 -9 -3 -16 10 -8 10 -11 0
-15 -6 -2 -10 -8 -7 -13 2 -4 -6 -45 -19 -91 -13 -46 -30 -108 -37 -136 -7
-29 -17 -53 -21 -53 -5 0 -7 -4 -3 -10 5 -8 -34 -167 -52 -210 -3 -8 -7 -19
-8 -25 -6 -45 -19 -85 -27 -85 -5 0 -6 -5 -3 -10 4 -6 3 -19 -1 -28 -4 -9 -9
-28 -11 -42 -2 -13 -7 -27 -11 -30 -4 -3 -7 -11 -8 -17 -1 -7 -2 -22 -2 -34
-2 -15 -7 -19 -18 -15 -14 5 -15 4 -5 -8 10 -11 9 -24 -3 -61 -9 -25 -16 -54
-16 -63 0 -10 -5 -23 -12 -30 -7 -7 -9 -12 -6 -12 3 0 0 -21 -6 -47 l-12 -48
-71 -1 -71 -2 19 67 c11 36 32 111 46 166 15 55 29 102 32 105 3 3 6 10 6 15
1 28 17 85 23 81 4 -2 8 14 9 37 1 22 5 43 10 46 4 3 8 11 8 16 0 21 28 125
34 125 3 0 7 15 8 32 2 18 7 34 13 36 6 2 8 8 5 12 -6 9 34 162 44 170 3 3 7
14 8 25 2 23 2 26 28 120 10 39 25 79 34 89 12 14 12 17 2 11 -10 -6 -13 -4
-9 6 3 8 13 41 22 74 9 33 20 67 23 75 3 8 5 21 4 29 -1 7 1 11 6 8 4 -3 8 8
9 23 1 15 5 36 9 46 5 11 9 22 10 27 2 4 3 8 5 10 1 1 3 11 4 22 2 11 6 35 10
53 7 29 10 31 24 20 13 -12 14 -11 2 8 -11 17 -10 29 5 73 17 53 23 76 24 99
1 7 6 10 13 6 7 -4 8 -3 4 5 -4 6 -2 34 5 62 11 43 14 47 21 29 4 -12 6 -26 2
-31z m781 -81 c14 -54 23 -102 20 -108 -3 -5 -2 -10 3 -10 7 0 32 -83 38 -125
0 -5 4 -17 7 -25 15 -38 74 -277 71 -293 -1 -9 1 -15 5 -12 4 2 12 -16 18 -40
6 -27 7 -45 1 -45 -5 0 -3 -7 5 -15 12 -12 28 -63 52 -170 3 -11 13 -49 23
-85 10 -36 18 -72 17 -80 0 -8 3 -17 6 -20 4 -3 9 -19 11 -35 2 -17 5 -32 9
-35 10 -9 49 -172 43 -181 -3 -5 0 -9 6 -9 7 0 10 -6 7 -14 -3 -7 -2 -17 3
-22 5 -5 11 -22 14 -39 3 -16 14 -61 26 -99 11 -38 18 -72 15 -74 -3 -3 0 -11
6 -19 6 -7 8 -13 4 -13 -4 0 -2 -7 5 -15 7 -8 10 -22 6 -30 -3 -8 -2 -15 3
-15 4 0 12 -20 18 -45 l10 -45 -58 0 c-52 0 -59 2 -60 20 -2 23 -3 29 -13 53
-5 9 -5 24 -2 33 4 10 2 13 -6 8 -7 -5 -9 -2 -5 9 3 9 1 18 -6 20 -9 3 -8 8 2
21 12 15 12 17 0 14 -8 -2 -14 4 -15 12 -1 8 -6 26 -11 40 -8 18 -7 29 1 39 8
11 8 13 -1 8 -8 -5 -17 12 -27 50 -9 32 -26 91 -37 131 -11 40 -18 80 -15 88
3 8 2 12 -4 9 -5 -3 -12 11 -17 32 -9 47 -8 45 -17 64 -4 8 -8 29 -9 45 -1 16
-6 32 -10 35 -5 3 -9 22 -10 41 -1 20 -6 33 -11 30 -5 -3 -7 5 -4 16 4 12 3
22 -2 22 -6 0 -42 120 -46 155 0 6 -4 17 -7 25 -10 26 -36 121 -35 128 1 4 -1
14 -5 22 -18 47 -127 442 -127 461 0 5 4 8 9 5 5 -4 7 4 3 16 -3 13 -1 19 5
15 6 -4 8 3 6 16 -2 12 5 39 15 59 11 21 16 36 12 33 -4 -3 -3 14 3 37 12 49
13 49 52 -94z m-141 -318 c3 -14 9 -40 15 -57 5 -18 7 -33 4 -33 -3 0 -1 -6 4
-12 6 -7 13 -26 17 -41 5 -22 4 -27 -6 -21 -7 4 -6 -1 3 -12 24 -29 31 -55 17
-71 -9 -11 -9 -13 2 -11 13 3 33 -49 25 -63 -3 -4 0 -9 6 -11 6 -2 11 -22 12
-45 1 -22 5 -39 9 -37 7 5 33 -91 32 -123 0 -12 3 -20 6 -18 10 6 42 -134 34
-147 -5 -7 -2 -8 6 -3 10 6 12 3 8 -13 -4 -12 -2 -20 2 -17 7 4 24 -56 25 -90
0 -5 3 -12 7 -16 4 -3 10 -21 12 -40 3 -18 6 -35 7 -36 1 -2 2 -6 4 -10 1 -5
4 -15 8 -23 17 -43 37 -132 32 -140 -3 -6 -2 -10 3 -10 10 0 26 -59 26 -97 0
-12 4 -20 8 -17 4 3 9 -3 10 -13 2 -33 3 -38 11 -49 4 -7 8 -28 9 -47 2 -19 6
-33 9 -31 4 2 9 -7 11 -21 l5 -25 -129 1 c-97 0 -127 3 -122 12 5 8 3 8 -7 0
-8 -9 -45 -13 -102 -13 -84 0 -89 1 -84 20 3 11 2 20 -3 20 -4 0 -11 17 -15
38 -5 20 -9 42 -11 48 -1 6 -9 37 -18 68 -9 31 -14 61 -11 65 3 5 1 11 -4 13
-6 1 -12 14 -15 28 -3 14 -12 49 -20 78 -8 28 -12 52 -9 52 3 0 0 6 -6 14 -6
7 -12 31 -14 54 -1 22 -5 38 -9 35 -5 -2 -8 5 -8 16 0 30 1 27 -15 64 -18 43
-2 122 23 112 12 -4 12 -3 3 8 -12 15 -4 77 9 77 4 0 7 6 7 13 -2 23 15 87 23
87 5 0 6 9 3 20 -3 12 0 20 6 20 7 0 10 4 6 10 -3 5 -3 21 1 35 5 19 11 24 23
20 13 -5 14 -4 4 6 -16 16 -17 43 -1 33 7 -4 8 -3 4 5 -11 17 24 142 37 134 6
-3 7 -1 3 6 -4 6 -2 19 6 28 8 10 8 14 1 10 -8 -5 -5 16 8 60 10 37 19 72 19
76 0 5 4 5 10 2 6 -3 7 1 4 9 -6 16 3 53 11 45 2 -3 6 -16 9 -29z m-527 -11
c-3 -12 -3 -18 1 -14 4 3 12 -15 19 -41 9 -36 9 -52 1 -62 -9 -10 -8 -12 3
-10 8 2 14 -4 15 -12 0 -8 6 -27 12 -41 5 -14 12 -39 15 -55 3 -16 10 -48 16
-72 7 -23 9 -48 5 -54 -4 -7 -3 -8 4 -4 7 4 13 0 14 -11 2 -26 4 -36 13 -56 4
-10 8 -33 9 -52 0 -18 4 -31 7 -29 4 2 9 -9 12 -24 4 -18 0 -31 -11 -41 -15
-12 -15 -12 6 -6 17 5 22 2 22 -12 0 -10 8 -45 18 -78 14 -46 15 -69 8 -97 -5
-21 -13 -38 -17 -38 -5 0 -6 -6 -3 -13 3 -8 -1 -27 -7 -43 -7 -16 -14 -38 -15
-49 -10 -56 -38 -145 -46 -145 -5 0 -6 -5 -3 -11 4 -6 -1 -17 -11 -25 -11 -9
-13 -13 -6 -9 6 3 12 1 12 -5 0 -19 -32 -124 -39 -130 -4 -3 -7 -12 -6 -20 0
-8 -7 -41 -14 -73 l-14 -58 -101 3 c-77 2 -100 6 -98 16 1 8 -2 11 -8 7 -6 -3
-8 -11 -5 -16 4 -5 -3 -9 -15 -9 -14 0 -19 4 -14 13 6 10 4 10 -7 0 -16 -16
-169 -18 -169 -3 0 6 4 10 9 10 5 0 7 8 4 19 -2 10 3 25 12 35 9 9 11 16 5 16
-6 0 -8 5 -3 13 8 12 13 32 15 55 1 6 5 12 10 12 5 0 6 5 3 10 -4 6 -3 19 1
28 4 9 8 24 10 32 10 50 39 150 43 150 3 0 7 14 7 31 1 17 7 35 14 39 7 4 10
12 7 17 -8 12 43 197 55 201 4 2 6 8 3 12 -3 5 -3 21 1 35 4 18 11 24 22 20
11 -4 12 -2 4 8 -7 8 -8 25 -2 47 41 167 54 209 63 203 6 -3 7 -1 3 6 -9 14
33 181 45 181 5 0 6 7 2 15 -3 9 3 25 13 37 11 12 14 18 7 15 -7 -4 -3 23 10
73 12 44 25 80 30 80 5 0 7 -9 4 -21z m266 -1027 c-2 -15 0 -21 7 -17 9 6 13
-7 13 -47 0 -10 3 -18 7 -18 4 0 10 -15 13 -32 4 -18 20 -81 36 -139 l29 -106
-128 -2 -128 -2 13 51 c7 28 18 57 24 64 6 7 8 15 5 19 -3 3 0 23 7 44 16 45
16 47 18 74 0 11 5 18 10 15 5 -4 7 4 3 16 -3 14 -1 19 6 14 8 -4 10 -2 6 7
-4 13 15 100 33 147 8 21 31 -58 26 -88z"/>
<path d="M3499 4908 c-5 -18 -6 -38 -1 -34 7 8 12 36 6 36 -2 0 -4 -1 -5 -2z"/>
<path d="M3475 4849 c-4 -6 -5 -12 -2 -15 2 -3 7 2 10 11 7 17 1 20 -8 4z"/>
<path d="M3490 4780 c0 -5 5 -10 11 -10 5 0 7 5 4 10 -3 6 -8 10 -11 10 -2 0
-4 -4 -4 -10z"/>
<path d="M3519 4753 c-13 -16 -12 -17 4 -4 16 13 21 21 13 21 -2 0 -10 -8 -17
-17z"/>
<path d="M3410 4740 c0 -5 5 -10 11 -10 5 0 7 5 4 10 -3 6 -8 10 -11 10 -2 0
-4 -4 -4 -10z"/>
<path d="M3475 4640 c3 -5 8 -10 11 -10 2 0 4 5 4 10 0 6 -5 10 -11 10 -5 0
-7 -4 -4 -10z"/>
<path d="M3450 4580 c0 -5 5 -10 11 -10 5 0 7 5 4 10 -3 6 -8 10 -11 10 -2 0
-4 -4 -4 -10z"/>
<path d="M3450 4539 c0 -5 5 -7 10 -4 6 3 10 8 10 11 0 2 -4 4 -10 4 -5 0 -10
-5 -10 -11z"/>
<path d="M3360 4480 c-9 -6 -10 -10 -3 -10 6 0 15 5 18 10 8 12 4 12 -15 0z"/>
<path d="M3555 4451 c-3 -5 -2 -12 3 -15 5 -3 9 1 9 9 0 17 -3 19 -12 6z"/>
<path d="M3554 4360 c0 -13 4 -16 10 -10 7 7 7 13 0 20 -6 6 -10 3 -10 -10z"/>
<path d="M3590 4361 c0 -6 4 -13 10 -16 6 -3 7 1 4 9 -7 18 -14 21 -14 7z"/>
<path d="M3590 4236 c7 -7 13 -7 20 0 6 6 3 10 -10 10 -13 0 -16 -4 -10 -10z"/>
<path d="M3586 4198 c3 -5 10 -6 15 -3 13 9 11 12 -6 12 -8 0 -12 -4 -9 -9z"/>
<path d="M3389 4163 c-13 -16 -12 -17 4 -4 16 13 21 21 13 21 -2 0 -10 -8 -17
-17z"/>
<path d="M3355 4161 c-3 -5 -2 -12 3 -15 5 -3 9 1 9 9 0 17 -3 19 -12 6z"/>
<path d="M3429 4083 c-13 -16 -12 -17 4 -4 9 7 17 15 17 17 0 8 -8 3 -21 -13z"/>
<path d="M3515 4011 c-3 -5 -2 -12 3 -15 5 -3 9 1 9 9 0 17 -3 19 -12 6z"/>
<path d="M3510 3976 c0 -2 8 -10 18 -17 15 -13 16 -12 3 4 -13 16 -21 21 -21
13z"/>
<path d="M3427 3939 c7 -7 15 -10 18 -7 3 3 -2 9 -12 12 -14 6 -15 5 -6 -5z"/>
<path d="M3481 3916 c-9 -11 -9 -16 1 -22 7 -4 10 -4 6 1 -4 4 -3 14 3 22 6 7
9 13 6 13 -2 0 -10 -6 -16 -14z"/>
<path d="M3396 3878 c3 -5 10 -6 15 -3 13 9 11 12 -6 12 -8 0 -12 -4 -9 -9z"/>
<path d="M3439 3888 c-5 -18 -6 -38 -1 -34 7 8 12 36 6 36 -2 0 -4 -1 -5 -2z"/>
<path d="M3525 3820 c-3 -6 1 -7 9 -4 18 7 21 14 7 14 -6 0 -13 -4 -16 -10z"/>
<path d="M3430 3776 c0 -2 8 -10 18 -17 15 -13 16 -12 3 4 -13 16 -21 21 -21
13z"/>
<path d="M3075 4161 c-3 -5 -2 -12 3 -15 5 -3 9 1 9 9 0 17 -3 19 -12 6z"/>
<path d="M3010 4099 c0 -5 5 -7 10 -4 6 3 10 8 10 11 0 2 -4 4 -10 4 -5 0 -10
-5 -10 -11z"/>
<path d="M3050 4099 c0 -5 5 -7 10 -4 6 3 10 8 10 11 0 2 -4 4 -10 4 -5 0 -10
-5 -10 -11z"/>
<path d="M3055 4060 c3 -5 8 -10 11 -10 2 0 4 5 4 10 0 6 -5 10 -11 10 -5 0
-7 -4 -4 -10z"/>
<path d="M3027 3959 c7 -7 15 -10 18 -7 3 3 -2 9 -12 12 -14 6 -15 5 -6 -5z"/>
<path d="M2993 3915 c0 -8 4 -12 9 -9 5 3 6 10 3 15 -9 13 -12 11 -12 -6z"/>
<path d="M2950 3899 c0 -5 5 -7 10 -4 6 3 10 8 10 11 0 2 -4 4 -10 4 -5 0 -10
-5 -10 -11z"/>
<path d="M2953 3845 c0 -8 4 -15 9 -15 4 0 8 4 8 9 0 6 -4 12 -8 15 -5 3 -9
-1 -9 -9z"/>
<path d="M2995 3840 c-3 -5 -1 -10 4 -10 6 0 11 5 11 10 0 6 -2 10 -4 10 -3 0
-8 -4 -11 -10z"/>
<path d="M2895 3700 c-3 -5 -1 -10 4 -10 6 0 11 5 11 10 0 6 -2 10 -4 10 -3 0
-8 -4 -11 -10z"/>
<path d="M2935 3700 c3 -5 8 -10 11 -10 2 0 4 5 4 10 0 6 -5 10 -11 10 -5 0
-7 -4 -4 -10z"/>
<path d="M2875 3600 c-3 -5 -1 -10 4 -10 6 0 11 5 11 10 0 6 -2 10 -4 10 -3 0
-8 -4 -11 -10z"/>
<path d="M2916 3602 c-3 -5 1 -9 9 -9 8 0 12 4 9 9 -3 4 -7 8 -9 8 -2 0 -6 -4
-9 -8z"/>
<path d="M2850 3540 c0 -5 5 -10 11 -10 5 0 7 5 4 10 -3 6 -8 10 -11 10 -2 0
-4 -4 -4 -10z"/>
<path d="M2860 3406 c0 -2 8 -10 18 -17 15 -13 16 -12 3 4 -13 16 -21 21 -21
13z"/>
<path d="M2835 3360 c-3 -5 -1 -10 4 -10 6 0 11 5 11 10 0 6 -2 10 -4 10 -3 0
-8 -4 -11 -10z"/>
<path d="M2770 3260 c0 -5 5 -10 11 -10 5 0 7 5 4 10 -3 6 -8 10 -11 10 -2 0
-4 -4 -4 -10z"/>
<path d="M2755 3121 c-3 -5 -2 -12 3 -15 5 -3 9 1 9 9 0 17 -3 19 -12 6z"/>
<path d="M2796 3082 c-3 -5 1 -9 9 -9 8 0 12 4 9 9 -3 4 -7 8 -9 8 -2 0 -6 -4
-9 -8z"/>
<path d="M2789 3043 c-13 -16 -12 -17 4 -4 16 13 21 21 13 21 -2 0 -10 -8 -17
-17z"/>
<path d="M2700 2886 c0 -2 8 -10 18 -17 15 -13 16 -12 3 4 -13 16 -21 21 -21
13z"/>
<path d="M2655 2820 c-3 -5 -1 -10 4 -10 6 0 11 5 11 10 0 6 -2 10 -4 10 -3 0
-8 -4 -11 -10z"/>
<path d="M2655 2780 c3 -5 8 -10 11 -10 2 0 4 5 4 10 0 6 -5 10 -11 10 -5 0
-7 -4 -4 -10z"/>
<path d="M3855 4420 c3 -5 8 -10 11 -10 2 0 4 5 4 10 0 6 -5 10 -11 10 -5 0
-7 -4 -4 -10z"/>
<path d="M3876 4318 c3 -5 10 -6 15 -3 13 9 11 12 -6 12 -8 0 -12 -4 -9 -9z"/>
<path d="M3855 4260 c-3 -5 -1 -10 4 -10 6 0 11 5 11 10 0 6 -2 10 -4 10 -3 0
-8 -4 -11 -10z"/>
<path d="M3850 4220 c0 -5 5 -10 11 -10 5 0 7 5 4 10 -3 6 -8 10 -11 10 -2 0
-4 -4 -4 -10z"/>
<path d="M3855 4180 c3 -5 8 -10 11 -10 2 0 4 5 4 10 0 6 -5 10 -11 10 -5 0
-7 -4 -4 -10z"/>
<path d="M3895 4100 c-3 -5 -1 -10 4 -10 6 0 11 5 11 10 0 6 -2 10 -4 10 -3 0
-8 -4 -11 -10z"/>
<path d="M3935 4100 c3 -5 8 -10 11 -10 2 0 4 5 4 10 0 6 -5 10 -11 10 -5 0
-7 -4 -4 -10z"/>
<path d="M3910 4016 c0 -2 8 -10 18 -17 15 -13 16 -12 3 4 -13 16 -21 21 -21
13z"/>
<path d="M3960 3980 c-12 -7 -10 -9 7 -7 12 0 19 5 17 9 -6 10 -6 10 -24 -2z"/>
<path d="M3956 3918 c3 -5 10 -6 15 -3 13 9 11 12 -6 12 -8 0 -12 -4 -9 -9z"/>
<path d="M3946 3882 c-3 -5 1 -9 9 -9 8 0 12 4 9 9 -3 4 -7 8 -9 8 -2 0 -6 -4
-9 -8z"/>
<path d="M3947 3799 c7 -7 15 -10 18 -7 3 3 -2 9 -12 12 -14 6 -15 5 -6 -5z"/>
<path d="M4030 3705 c0 -7 30 -13 34 -7 3 4 -4 9 -15 9 -10 1 -19 0 -19 -2z"/>
<path d="M4050 3660 c0 -5 5 -10 11 -10 5 0 7 5 4 10 -3 6 -8 10 -11 10 -2 0
-4 -4 -4 -10z"/>
<path d="M4015 3580 c3 -5 8 -10 11 -10 2 0 4 5 4 10 0 6 -5 10 -11 10 -5 0
-7 -4 -4 -10z"/>
<path d="M4055 3580 c-3 -5 -1 -10 4 -10 6 0 11 5 11 10 0 6 -2 10 -4 10 -3 0
-8 -4 -11 -10z"/>
<path d="M4075 3441 c-3 -5 -2 -12 3 -15 5 -3 9 1 9 9 0 17 -3 19 -12 6z"/>
<path d="M4110 3439 c0 -5 5 -7 10 -4 6 3 10 8 10 11 0 2 -4 4 -10 4 -5 0 -10
-5 -10 -11z"/>
<path d="M4090 3340 c0 -5 5 -10 11 -10 5 0 7 5 4 10 -3 6 -8 10 -11 10 -2 0
-4 -4 -4 -10z"/>
<path d="M4126 3338 c3 -5 10 -6 15 -3 13 9 11 12 -6 12 -8 0 -12 -4 -9 -9z"/>
<path d="M4090 3299 c0 -5 5 -7 10 -4 6 3 10 8 10 11 0 2 -4 4 -10 4 -5 0 -10
-5 -10 -11z"/>
<path d="M4130 3300 c0 -5 5 -10 11 -10 5 0 7 5 4 10 -3 6 -8 10 -11 10 -2 0
-4 -4 -4 -10z"/>
<path d="M4110 3199 c0 -5 5 -7 10 -4 6 3 10 8 10 11 0 2 -4 4 -10 4 -5 0 -10
-5 -10 -11z"/>
<path d="M4150 3200 c0 -5 5 -10 10 -10 6 0 10 5 10 10 0 6 -4 10 -10 10 -5 0
-10 -4 -10 -10z"/>
<path d="M4175 3060 c3 -5 8 -10 11 -10 2 0 4 5 4 10 0 6 -5 10 -11 10 -5 0
-7 -4 -4 -10z"/>
<path d="M4215 3060 c3 -5 8 -10 11 -10 2 0 4 5 4 10 0 6 -5 10 -11 10 -5 0
-7 -4 -4 -10z"/>
<path d="M4175 3020 c3 -5 8 -10 11 -10 2 0 4 5 4 10 0 6 -5 10 -11 10 -5 0
-7 -4 -4 -10z"/>
<path d="M4215 3020 c-3 -5 -1 -10 4 -10 6 0 11 5 11 10 0 6 -2 10 -4 10 -3 0
-8 -4 -11 -10z"/>
<path d="M4250 2939 c0 -5 5 -7 10 -4 6 3 10 8 10 11 0 2 -4 4 -10 4 -5 0 -10
-5 -10 -11z"/>
<path d="M3676 3838 c3 -5 10 -6 15 -3 13 9 11 12 -6 12 -8 0 -12 -4 -9 -9z"/>
<path d="M3655 3780 c-3 -5 -1 -10 4 -10 6 0 11 5 11 10 0 6 -2 10 -4 10 -3 0
-8 -4 -11 -10z"/>
<path d="M3746 3762 c-2 -4 4 -8 14 -8 10 0 16 4 14 8 -3 4 -9 8 -14 8 -5 0
-11 -4 -14 -8z"/>
<path d="M3709 3643 c-13 -16 -12 -17 4 -4 16 13 21 21 13 21 -2 0 -10 -8 -17
-17z"/>
<path d="M3789 3643 c-13 -16 -12 -17 4 -4 9 7 17 15 17 17 0 8 -8 3 -21 -13z"/>
<path d="M3676 3633 c-6 -14 -5 -15 5 -6 7 7 10 15 7 18 -3 3 -9 -2 -12 -12z"/>
<path d="M3850 3579 c0 -5 5 -7 10 -4 6 3 10 8 10 11 0 2 -4 4 -10 4 -5 0 -10
-5 -10 -11z"/>
<path d="M3756 3553 c-6 -14 -5 -15 5 -6 7 7 10 15 7 18 -3 3 -9 -2 -12 -12z"/>
<path d="M3670 3546 c0 -2 7 -7 16 -10 8 -3 12 -2 9 4 -6 10 -25 14 -25 6z"/>
<path d="M3680 3500 c-9 -6 -10 -10 -3 -10 6 0 15 5 18 10 8 12 4 12 -15 0z"/>
<path d="M3635 3489 c-4 -6 -5 -12 -2 -15 2 -3 7 2 10 11 7 17 1 20 -8 4z"/>
<path d="M3717 3450 c7 -8 20 -15 29 -16 9 -1 13 1 9 4 -4 4 -10 7 -13 7 -4 0
-14 4 -22 9 -12 7 -13 6 -3 -4z"/>
<path d="M3794 3406 c1 -8 5 -18 8 -22 4 -3 5 1 4 10 -1 8 -5 18 -8 22 -4 3
-5 -1 -4 -10z"/>
<path d="M3829 3403 c-13 -16 -12 -17 4 -4 16 13 21 21 13 21 -2 0 -10 -8 -17
-17z"/>
<path d="M3696 3393 c-6 -14 -5 -15 5 -6 7 7 10 15 7 18 -3 3 -9 -2 -12 -12z"/>
<path d="M3549 3363 c-13 -16 -12 -17 4 -4 16 13 21 21 13 21 -2 0 -10 -8 -17
-17z"/>
<path d="M3750 3376 c0 -2 8 -10 18 -17 15 -13 16 -12 3 4 -13 16 -21 21 -21
13z"/>
<path d="M3816 3327 c3 -10 9 -15 12 -12 3 3 0 11 -7 18 -10 9 -11 8 -5 -6z"/>
<path d="M3676 3273 c-6 -14 -5 -15 5 -6 7 7 10 15 7 18 -3 3 -9 -2 -12 -12z"/>
<path d="M3695 3209 c-4 -6 -5 -12 -2 -15 2 -3 7 2 10 11 7 17 1 20 -8 4z"/>
<path d="M3594 3202 c4 -3 14 -7 22 -8 9 -1 13 0 10 4 -4 3 -14 7 -22 8 -9 1
-13 0 -10 -4z"/>
<path d="M3740 3166 c0 -2 8 -10 18 -17 15 -13 16 -12 3 4 -13 16 -21 21 -21
13z"/>
<path d="M3869 3123 c-13 -16 -12 -17 4 -4 9 7 17 15 17 17 0 8 -8 3 -21 -13z"/>
<path d="M3656 3118 c3 -5 10 -6 15 -3 13 9 11 12 -6 12 -8 0 -12 -4 -9 -9z"/>
<path d="M3796 3101 c-3 -5 2 -15 12 -22 15 -12 16 -12 5 2 -7 9 -10 19 -6 22
3 4 4 7 0 7 -3 0 -8 -4 -11 -9z"/>
<path d="M3656 3087 c3 -10 9 -15 12 -12 3 3 0 11 -7 18 -10 9 -11 8 -5 -6z"/>
<path d="M3734 3086 c1 -8 5 -18 8 -22 4 -3 5 1 4 10 -1 8 -5 18 -8 22 -4 3
-5 -1 -4 -10z"/>
<path d="M3870 3076 c7 -7 13 -7 20 0 6 6 3 10 -10 10 -13 0 -16 -4 -10 -10z"/>
<path d="M3870 3056 c0 -2 8 -10 18 -17 15 -13 16 -12 3 4 -13 16 -21 21 -21
13z"/>
<path d="M3950 3056 c0 -2 8 -10 18 -17 15 -13 16 -12 3 4 -13 16 -21 21 -21
13z"/>
<path d="M3793 3023 c4 -3 1 -13 -6 -22 -11 -14 -10 -14 5 -2 16 12 16 31 1
31 -4 0 -3 -3 0 -7z"/>
<path d="M3634 2996 c1 -8 5 -18 8 -22 4 -3 5 1 4 10 -1 8 -5 18 -8 22 -4 3
-5 -1 -4 -10z"/>
<path d="M3755 3000 c3 -5 8 -10 11 -10 2 0 4 5 4 10 0 6 -5 10 -11 10 -5 0
-7 -4 -4 -10z"/>
<path d="M3676 2958 c3 -5 10 -6 15 -3 13 9 11 12 -6 12 -8 0 -12 -4 -9 -9z"/>
<path d="M3879 2953 c-13 -16 -12 -17 4 -4 16 13 21 21 13 21 -2 0 -10 -8 -17
-17z"/>
<path d="M3744 2942 c4 -3 14 -7 22 -8 9 -1 13 0 10 4 -4 3 -14 7 -22 8 -9 1
-13 0 -10 -4z"/>
<path d="M4030 2936 c0 -2 8 -10 18 -17 15 -13 16 -12 3 4 -13 16 -21 21 -21
13z"/>
<path d="M3825 2920 c-3 -6 1 -7 9 -4 18 7 21 14 7 14 -6 0 -13 -4 -16 -10z"/>
<path d="M3864 2918 c-4 -7 -3 -8 5 -4 6 4 20 2 29 -6 15 -12 16 -11 3 5 -16
20 -27 22 -37 5z"/>
<path d="M3673 2895 c0 -8 4 -12 9 -9 5 3 6 10 3 15 -9 13 -12 11 -12 -6z"/>
<path d="M3770 2881 c0 -6 4 -13 10 -16 6 -3 7 1 4 9 -7 18 -14 21 -14 7z"/>
<path d="M3715 2839 c-3 -4 2 -6 10 -5 21 3 28 13 10 13 -9 0 -18 -4 -20 -8z"/>
<path d="M3980 2846 c0 -2 8 -10 18 -17 15 -13 16 -12 3 4 -13 16 -21 21 -21
13z"/>
<path d="M3855 2809 c-4 -6 -5 -12 -2 -15 2 -3 7 2 10 11 7 17 1 20 -8 4z"/>
<path d="M3985 2799 c-3 -4 2 -6 10 -5 21 3 28 13 10 13 -9 0 -18 -4 -20 -8z"/>
<path d="M3993 2765 c0 -8 4 -12 9 -9 5 3 6 10 3 15 -9 13 -12 11 -12 -6z"/>
<path d="M3690 2761 c0 -6 4 -13 10 -16 6 -3 7 1 4 9 -7 18 -14 21 -14 7z"/>
<path d="M3919 2713 c-13 -16 -12 -17 4 -4 16 13 21 21 13 21 -2 0 -10 -8 -17
-17z"/>
<path d="M3250 3901 c0 -6 4 -13 10 -16 6 -3 7 1 4 9 -7 18 -14 21 -14 7z"/>
<path d="M3176 3778 c3 -5 10 -6 15 -3 13 9 11 12 -6 12 -8 0 -12 -4 -9 -9z"/>
<path d="M3266 3762 c-3 -5 1 -9 9 -9 8 0 12 4 9 9 -3 4 -7 8 -9 8 -2 0 -6 -4
-9 -8z"/>
<path d="M3193 3645 c0 -8 4 -15 9 -15 4 0 8 4 8 9 0 6 -4 12 -8 15 -5 3 -9
-1 -9 -9z"/>
<path d="M3159 3633 c-13 -16 -12 -17 4 -4 9 7 17 15 17 17 0 8 -8 3 -21 -13z"/>
<path d="M3096 3607 c3 -10 9 -15 12 -12 3 3 0 11 -7 18 -10 9 -11 8 -5 -6z"/>
<path d="M3229 3603 c-13 -16 -12 -17 4 -4 16 13 21 21 13 21 -2 0 -10 -8 -17
-17z"/>
<path d="M3320 3500 c-9 -6 -10 -10 -3 -10 6 0 15 5 18 10 8 12 4 12 -15 0z"/>
<path d="M3095 3491 c-3 -5 -2 -12 3 -15 5 -3 9 1 9 9 0 17 -3 19 -12 6z"/>
<path d="M3135 3449 c-4 -6 -5 -12 -2 -15 2 -3 7 2 10 11 7 17 1 20 -8 4z"/>
<path d="M3154 3406 c1 -8 5 -18 8 -22 4 -3 5 1 4 10 -1 8 -5 18 -8 22 -4 3
-5 -1 -4 -10z"/>
<path d="M3189 3403 c-13 -16 -12 -17 4 -4 9 7 17 15 17 17 0 8 -8 3 -21 -13z"/>
<path d="M3376 3393 c-6 -14 -5 -15 5 -6 7 7 10 15 7 18 -3 3 -9 -2 -12 -12z"/>
<path d="M3039 3353 c-13 -16 -12 -17 4 -4 16 13 21 21 13 21 -2 0 -10 -8 -17
-17z"/>
<path d="M3266 3362 c-2 -4 4 -8 14 -8 10 0 16 4 14 8 -3 4 -9 8 -14 8 -5 0
-11 -4 -14 -8z"/>
<path d="M3393 3329 c-2 -23 3 -25 10 -4 4 8 3 16 -1 19 -4 3 -9 -4 -9 -15z"/>
<path d="M3026 3318 c3 -5 10 -6 15 -3 13 9 11 12 -6 12 -8 0 -12 -4 -9 -9z"/>
<path d="M3310 3306 c0 -2 7 -7 16 -10 8 -3 12 -2 9 4 -6 10 -25 14 -25 6z"/>
<path d="M3157 3290 c7 -8 20 -15 29 -16 9 -1 13 1 9 4 -4 4 -10 7 -13 7 -4 0
-14 4 -22 9 -12 7 -13 6 -3 -4z"/>
<path d="M3079 3193 c-13 -16 -12 -17 4 -4 16 13 21 21 13 21 -2 0 -10 -8 -17
-17z"/>
<path d="M3120 3200 c-9 -6 -10 -10 -3 -10 6 0 15 5 18 10 8 12 4 12 -15 0z"/>
<path d="M2994 3169 c-3 -6 -2 -15 3 -20 5 -5 9 -1 9 11 0 23 -2 24 -12 9z"/>
<path d="M3155 3169 c-4 -6 -5 -12 -2 -15 2 -3 7 2 10 11 7 17 1 20 -8 4z"/>
<path d="M3110 3160 c0 -5 5 -10 10 -10 6 0 10 5 10 10 0 6 -4 10 -10 10 -5 0
-10 -4 -10 -10z"/>
<path d="M3070 3136 c0 -2 8 -10 18 -17 15 -13 16 -12 3 4 -13 16 -21 21 -21
13z"/>
<path d="M3110 3126 c0 -2 7 -7 16 -10 8 -3 12 -2 9 4 -6 10 -25 14 -25 6z"/>
<path d="M2955 3071 c-3 -5 -2 -12 3 -15 5 -3 9 1 9 9 0 17 -3 19 -12 6z"/>
<path d="M3153 3010 c-1 -11 2 -22 6 -24 4 -3 7 4 6 14 -2 27 -10 33 -12 10z"/>
<path d="M3040 2960 c-9 -6 -10 -10 -3 -10 6 0 15 5 18 10 8 12 4 12 -15 0z"/>
<path d="M3273 2955 c0 -8 4 -12 9 -9 5 3 6 10 3 15 -9 13 -12 11 -12 -6z"/>
<path d="M3075 2929 c-4 -6 -5 -12 -2 -15 2 -3 7 2 10 11 7 17 1 20 -8 4z"/>
<path d="M3194 2926 c1 -8 5 -18 8 -22 4 -3 5 1 4 10 -1 8 -5 18 -8 22 -4 3
-5 -1 -4 -10z"/>
<path d="M2919 2913 c-13 -16 -12 -17 4 -4 16 13 21 21 13 21 -2 0 -10 -8 -17
-17z"/>
<path d="M3030 2926 c0 -2 7 -7 16 -10 8 -3 12 -2 9 4 -6 10 -25 14 -25 6z"/>
<path d="M2987 2859 c7 -7 15 -10 18 -7 3 3 -2 9 -12 12 -14 6 -15 5 -6 -5z"/>
<path d="M2919 2793 c-13 -16 -12 -17 4 -4 9 7 17 15 17 17 0 8 -8 3 -21 -13z"/>
<path d="M3180 2806 c0 -2 8 -10 18 -17 15 -13 16 -12 3 4 -13 16 -21 21 -21
13z"/>
<path d="M3067 2779 c7 -7 15 -10 18 -7 3 3 -2 9 -12 12 -14 6 -15 5 -6 -5z"/>
<path d="M3174 2762 c4 -3 14 -7 22 -8 9 -1 13 0 10 4 -4 3 -14 7 -22 8 -9 1
-13 0 -10 -4z"/>
<path d="M3026 2738 c3 -5 10 -6 15 -3 13 9 11 12 -6 12 -8 0 -12 -4 -9 -9z"/>
<path d="M2860 2726 c0 -2 8 -10 18 -17 15 -13 16 -12 3 4 -13 16 -21 21 -21
13z"/>
<path d="M2919 2713 c-13 -16 -12 -17 4 -4 16 13 21 21 13 21 -2 0 -10 -8 -17
-17z"/>
<path d="M3446 2962 c-3 -5 1 -9 9 -9 8 0 12 4 9 9 -3 4 -7 8 -9 8 -2 0 -6 -4
-9 -8z"/>
<path d="M3513 2895 c0 -8 4 -12 9 -9 5 3 6 10 3 15 -9 13 -12 11 -12 -6z"/>
<path d="M3370 2721 c0 -6 4 -13 10 -16 6 -3 7 1 4 9 -7 18 -14 21 -14 7z"/>
<path d="M3476 2722 c-3 -5 1 -9 9 -9 8 0 12 4 9 9 -3 4 -7 8 -9 8 -2 0 -6 -4
-9 -8z"/>
<path d="M3355 5271 c-3 -5 -2 -12 3 -15 5 -3 9 1 9 9 0 17 -3 19 -12 6z"/>
<path d="M3586 5202 c-3 -5 1 -9 9 -9 8 0 12 4 9 9 -3 4 -7 8 -9 8 -2 0 -6 -4
-9 -8z"/>
<path d="M3836 5193 c-6 -14 -5 -15 5 -6 7 7 10 15 7 18 -3 3 -9 -2 -12 -12z"/>
<path d="M3953 5125 c0 -8 4 -12 9 -9 5 3 6 10 3 15 -9 13 -12 11 -12 -6z"/>
<path d="M3620 5080 c-8 -5 -10 -10 -5 -10 6 0 17 5 25 10 8 5 11 10 5 10 -5
0 -17 -5 -25 -10z"/>
<path d="M3686 5078 c3 -5 10 -6 15 -3 13 9 11 12 -6 12 -8 0 -12 -4 -9 -9z"/>
<path d="M3796 5073 c-6 -14 -5 -15 5 -6 7 7 10 15 7 18 -3 3 -9 -2 -12 -12z"/>
<path d="M3156 5053 c-6 -14 -5 -15 5 -6 7 7 10 15 7 18 -3 3 -9 -2 -12 -12z"/>
<path d="M2906 5038 c3 -5 10 -6 15 -3 13 9 11 12 -6 12 -8 0 -12 -4 -9 -9z"/>
<path d="M4033 5035 c0 -8 4 -12 9 -9 5 3 6 10 3 15 -9 13 -12 11 -12 -6z"/>
<path d="M3635 5020 c3 -5 8 -10 11 -10 2 0 4 5 4 10 0 6 -5 10 -11 10 -5 0
-7 -4 -4 -10z"/>
<path d="M3696 5018 c3 -4 11 -5 19 -1 21 7 19 12 -4 10 -11 0 -18 -5 -15 -9z"/>
<path d="M4269 5003 c-13 -16 -12 -17 4 -4 9 7 17 15 17 17 0 8 -8 3 -21 -13z"/>
<path d="M4510 5006 c0 -2 7 -7 16 -10 8 -3 12 -2 9 4 -6 10 -25 14 -25 6z"/>
<path d="M3735 4991 c-3 -5 -2 -12 3 -15 5 -3 9 1 9 9 0 17 -3 19 -12 6z"/>
<path d="M3160 4980 c-12 -7 -10 -9 7 -7 12 0 19 5 17 9 -6 10 -6 10 -24 -2z"/>
<path d="M3634 4982 c4 -3 14 -7 22 -8 9 -1 13 0 10 4 -4 3 -14 7 -22 8 -9 1
-13 0 -10 -4z"/>
<path d="M2980 4960 c-9 -6 -10 -10 -3 -10 6 0 15 5 18 10 8 12 4 12 -15 0z"/>
<path d="M3090 4959 c0 -5 5 -7 10 -4 6 3 10 8 10 11 0 2 -4 4 -10 4 -5 0 -10
-5 -10 -11z"/>
<path d="M3775 4960 c3 -5 8 -10 11 -10 2 0 4 5 4 10 0 6 -5 10 -11 10 -5 0
-7 -4 -4 -10z"/>
<path d="M3836 4955 c-9 -26 -7 -32 5 -12 6 10 9 21 6 23 -2 3 -7 -2 -11 -11z"/>
<path d="M3215 4939 c-3 -4 2 -6 10 -5 21 3 28 13 10 13 -9 0 -18 -4 -20 -8z"/>
<path d="M3274 4942 c4 -3 14 -7 22 -8 9 -1 13 0 10 4 -4 3 -14 7 -22 8 -9 1
-13 0 -10 -4z"/>
<path d="M3735 4941 c-3 -5 -2 -12 3 -15 5 -3 9 1 9 9 0 17 -3 19 -12 6z"/>
<path d="M2356 4913 c-6 -14 -5 -15 5 -6 7 7 10 15 7 18 -3 3 -9 -2 -12 -12z"/>
<path d="M3661 4916 c-9 -11 -9 -16 1 -22 7 -4 10 -4 6 1 -4 4 -3 14 3 22 6 7
9 13 6 13 -2 0 -10 -6 -16 -14z"/>
<path d="M3094 4902 c4 -3 14 -7 22 -8 9 -1 13 0 10 4 -4 3 -14 7 -22 8 -9 1
-13 0 -10 -4z"/>
<path d="M3155 4899 c-3 -4 2 -6 10 -5 21 3 28 13 10 13 -9 0 -18 -4 -20 -8z"/>
<path d="M3274 4902 c4 -3 14 -7 22 -8 9 -1 13 0 10 4 -4 3 -14 7 -22 8 -9 1
-13 0 -10 -4z"/>
<path d="M3776 4898 c3 -5 10 -6 15 -3 13 9 11 12 -6 12 -8 0 -12 -4 -9 -9z"/>
<path d="M3214 4862 c4 -3 14 -7 22 -8 9 -1 13 0 10 4 -4 3 -14 7 -22 8 -9 1
-13 0 -10 -4z"/>
<path d="M3714 4862 c4 -3 14 -7 22 -8 9 -1 13 0 10 4 -4 3 -14 7 -22 8 -9 1
-13 0 -10 -4z"/>
<path d="M3955 4860 c3 -5 8 -10 11 -10 2 0 4 5 4 10 0 6 -5 10 -11 10 -5 0
-7 -4 -4 -10z"/>
<path d="M3064 4842 c4 -3 14 -7 22 -8 9 -1 13 0 10 4 -4 3 -14 7 -22 8 -9 1
-13 0 -10 -4z"/>
<path d="M3133 4825 c0 -8 4 -12 9 -9 5 3 6 10 3 15 -9 13 -12 11 -12 -6z"/>
<path d="M3815 4819 c-3 -4 2 -6 10 -5 21 3 28 13 10 13 -9 0 -18 -4 -20 -8z"/>
<path d="M4030 4821 c0 -6 4 -13 10 -16 6 -3 7 1 4 9 -7 18 -14 21 -14 7z"/>
<path d="M4675 4811 c-3 -5 -2 -12 3 -15 5 -3 9 1 9 9 0 17 -3 19 -12 6z"/>
<path d="M3699 4808 c-5 -18 -6 -38 -1 -34 7 8 12 36 6 36 -2 0 -4 -1 -5 -2z"/>
<path d="M3035 4780 c3 -5 8 -10 11 -10 2 0 4 5 4 10 0 6 -5 10 -11 10 -5 0
-7 -4 -4 -10z"/>
<path d="M3214 4782 c4 -3 14 -7 22 -8 9 -1 13 0 10 4 -4 3 -14 7 -22 8 -9 1
-13 0 -10 -4z"/>
<path d="M3775 4780 c3 -5 8 -10 11 -10 2 0 4 5 4 10 0 6 -5 10 -11 10 -5 0
-7 -4 -4 -10z"/>
<path d="M3955 4780 c3 -5 8 -10 11 -10 2 0 4 5 4 10 0 6 -5 10 -11 10 -5 0
-7 -4 -4 -10z"/>
<path d="M3695 4740 c-3 -5 -1 -10 4 -10 6 0 11 5 11 10 0 6 -2 10 -4 10 -3 0
-8 -4 -11 -10z"/>
<path d="M3774 4736 c1 -8 5 -18 8 -22 4 -3 5 1 4 10 -1 8 -5 18 -8 22 -4 3
-5 -1 -4 -10z"/>
<path d="M3936 4738 c3 -5 10 -6 15 -3 13 9 11 12 -6 12 -8 0 -12 -4 -9 -9z"/>
<path d="M3995 4740 c-3 -5 -1 -10 4 -10 6 0 11 5 11 10 0 6 -2 10 -4 10 -3 0
-8 -4 -11 -10z"/>
<path d="M3215 4700 c-3 -5 -1 -10 4 -10 6 0 11 5 11 10 0 6 -2 10 -4 10 -3 0
-8 -4 -11 -10z"/>
<path d="M3996 4687 c3 -10 9 -15 12 -12 3 3 0 11 -7 18 -10 9 -11 8 -5 -6z"/>
<path d="M3010 4679 c0 -5 5 -7 10 -4 6 3 10 8 10 11 0 2 -4 4 -10 4 -5 0 -10
-5 -10 -11z"/>
<path d="M4670 4679 c0 -5 5 -7 10 -4 6 3 10 8 10 11 0 2 -4 4 -10 4 -5 0 -10
-5 -10 -11z"/>
<path d="M2830 4661 c0 -6 4 -13 10 -16 6 -3 7 1 4 9 -7 18 -14 21 -14 7z"/>
<path d="M2936 4658 c3 -5 10 -6 15 -3 13 9 11 12 -6 12 -8 0 -12 -4 -9 -9z"/>
<path d="M2193 4635 c0 -8 4 -12 9 -9 5 3 6 10 3 15 -9 13 -12 11 -12 -6z"/>
<path d="M2979 4648 c-5 -18 -6 -38 -1 -34 7 8 12 36 6 36 -2 0 -4 -1 -5 -2z"/>
<path d="M4045 4640 c-3 -6 1 -7 9 -4 18 7 21 14 7 14 -6 0 -13 -4 -16 -10z"/>
<path d="M4760 4640 c-9 -6 -10 -10 -3 -10 6 0 15 5 18 10 8 12 4 12 -15 0z"/>
<path d="M4006 4618 c3 -5 10 -6 15 -3 13 9 11 12 -6 12 -8 0 -12 -4 -9 -9z"/>
<path d="M2780 4600 c-9 -6 -10 -10 -3 -10 6 0 15 5 18 10 8 12 4 12 -15 0z"/>
<path d="M2820 4606 c0 -2 8 -10 18 -17 15 -13 16 -12 3 4 -13 16 -21 21 -21
13z"/>
<path d="M2904 4602 c4 -3 14 -7 22 -8 9 -1 13 0 10 4 -4 3 -14 7 -22 8 -9 1
-13 0 -10 -4z"/>
<path d="M4470 4601 c0 -6 4 -13 10 -16 6 -3 7 1 4 9 -7 18 -14 21 -14 7z"/>
<path d="M2974 4576 c1 -8 5 -18 8 -22 4 -3 5 1 4 10 -1 8 -5 18 -8 22 -4 3
-5 -1 -4 -10z"/>
<path d="M3974 4576 c1 -8 5 -18 8 -22 4 -3 5 1 4 10 -1 8 -5 18 -8 22 -4 3
-5 -1 -4 -10z"/>
<path d="M4275 4571 c-3 -5 -2 -12 3 -15 5 -3 9 1 9 9 0 17 -3 19 -12 6z"/>
<path d="M2195 4560 c-3 -5 -1 -10 4 -10 6 0 11 5 11 10 0 6 -2 10 -4 10 -3 0
-8 -4 -11 -10z"/>
<path d="M2666 4562 c-3 -5 1 -9 9 -9 8 0 12 4 9 9 -3 4 -7 8 -9 8 -2 0 -6 -4
-9 -8z"/>
<path d="M4396 4522 c-3 -5 1 -9 9 -9 8 0 12 4 9 9 -3 4 -7 8 -9 8 -2 0 -6 -4
-9 -8z"/>
<path d="M2915 4499 c-3 -4 2 -6 10 -5 21 3 28 13 10 13 -9 0 -18 -4 -20 -8z"/>
<path d="M4190 4501 c0 -6 4 -13 10 -16 6 -3 7 1 4 9 -7 18 -14 21 -14 7z"/>
<path d="M3995 4459 c-3 -4 2 -6 10 -5 21 3 28 13 10 13 -9 0 -18 -4 -20 -8z"/>
<path d="M2856 4418 c3 -5 10 -6 15 -3 13 9 11 12 -6 12 -8 0 -12 -4 -9 -9z"/>
<path d="M2915 4419 c-3 -4 2 -6 10 -5 21 3 28 13 10 13 -9 0 -18 -4 -20 -8z"/>
<path d="M4315 4401 c-3 -5 -2 -12 3 -15 5 -3 9 1 9 9 0 17 -3 19 -12 6z"/>
<path d="M2875 4339 c-3 -4 2 -6 10 -5 21 3 28 13 10 13 -9 0 -18 -4 -20 -8z"/>
<path d="M2106 4322 c-3 -5 1 -9 9 -9 8 0 12 4 9 9 -3 4 -7 8 -9 8 -2 0 -6 -4
-9 -8z"/>
<path d="M4050 4319 c0 -5 5 -7 10 -4 6 3 10 8 10 11 0 2 -4 4 -10 4 -5 0 -10
-5 -10 -11z"/>
<path d="M2855 4299 c-3 -4 2 -6 10 -5 21 3 28 13 10 13 -9 0 -18 -4 -20 -8z"/>
<path d="M2816 4258 c3 -5 10 -6 15 -3 13 9 11 12 -6 12 -8 0 -12 -4 -9 -9z"/>
<path d="M4115 4260 c-3 -5 -1 -10 4 -10 6 0 11 5 11 10 0 6 -2 10 -4 10 -3 0
-8 -4 -11 -10z"/>
<path d="M2586 4238 c3 -5 10 -6 15 -3 13 9 11 12 -6 12 -8 0 -12 -4 -9 -9z"/>
<path d="M2736 4198 c3 -5 10 -6 15 -3 13 9 11 12 -6 12 -8 0 -12 -4 -9 -9z"/>
<path d="M2790 4199 c0 -5 5 -7 10 -4 6 3 10 8 10 11 0 2 -4 4 -10 4 -5 0 -10
-5 -10 -11z"/>
<path d="M2150 4160 c0 -5 5 -10 11 -10 5 0 7 5 4 10 -3 6 -8 10 -11 10 -2 0
-4 -4 -4 -10z"/>
<path d="M2817 4155 c-4 -8 -3 -16 1 -19 4 -3 9 4 9 15 2 23 -3 25 -10 4z"/>
<path d="M2115 4121 c-3 -5 -2 -12 3 -15 5 -3 9 1 9 9 0 17 -3 19 -12 6z"/>
<path d="M4190 4121 c0 -6 4 -13 10 -16 6 -3 7 1 4 9 -7 18 -14 21 -14 7z"/>
<path d="M4246 4122 c-3 -5 1 -9 9 -9 8 0 12 4 9 9 -3 4 -7 8 -9 8 -2 0 -6 -4
-9 -8z"/>
<path d="M4136 4098 c3 -5 10 -6 15 -3 13 9 11 12 -6 12 -8 0 -12 -4 -9 -9z"/>
<path d="M2685 4080 c-3 -6 1 -7 9 -4 18 7 21 14 7 14 -6 0 -13 -4 -16 -10z"/>
<path d="M4309 4043 c-13 -16 -12 -17 4 -4 16 13 21 21 13 21 -2 0 -10 -8 -17
-17z"/>
<path d="M2590 3999 c0 -5 5 -7 10 -4 6 3 10 8 10 11 0 2 -4 4 -10 4 -5 0 -10
-5 -10 -11z"/>
<path d="M4206 3998 c3 -5 10 -6 15 -3 13 9 11 12 -6 12 -8 0 -12 -4 -9 -9z"/>
<path d="M4134 3978 c-4 -7 -4 -10 1 -6 4 4 15 2 24 -5 14 -11 14 -10 2 6 -16
20 -18 21 -27 5z"/>
<path d="M4326 3962 c-3 -5 1 -9 9 -9 8 0 12 4 9 9 -3 4 -7 8 -9 8 -2 0 -6 -4
-9 -8z"/>
<path d="M2794 3942 c4 -3 14 -7 22 -8 9 -1 13 0 10 4 -4 3 -14 7 -22 8 -9 1
-13 0 -10 -4z"/>
<path d="M4150 3936 c0 -2 8 -10 18 -17 15 -13 16 -12 3 4 -13 16 -21 21 -21
13z"/>
<path d="M2595 3920 c3 -5 8 -10 11 -10 2 0 4 5 4 10 0 6 -5 10 -11 10 -5 0
-7 -4 -4 -10z"/>
<path d="M4749 3883 c-13 -16 -12 -17 4 -4 9 7 17 15 17 17 0 8 -8 3 -21 -13z"/>
<path d="M5265 3880 c-3 -6 1 -7 9 -4 18 7 21 14 7 14 -6 0 -13 -4 -16 -10z"/>
<path d="M2640 3840 c-9 -6 -10 -10 -3 -10 6 0 15 5 18 10 8 12 4 12 -15 0z"/>
<path d="M4174 3836 c1 -8 5 -18 8 -22 4 -3 5 1 4 10 -1 8 -5 18 -8 22 -4 3
-5 -1 -4 -10z"/>
<path d="M2735 3819 c-3 -4 2 -6 10 -5 21 3 28 13 10 13 -9 0 -18 -4 -20 -8z"/>
<path d="M2690 3719 c0 -5 5 -7 10 -4 6 3 10 8 10 11 0 2 -4 4 -10 4 -5 0 -10
-5 -10 -11z"/>
<path d="M1866 3678 c3 -5 10 -6 15 -3 13 9 11 12 -6 12 -8 0 -12 -4 -9 -9z"/>
<path d="M4436 3682 c-3 -5 1 -9 9 -9 8 0 12 4 9 9 -3 4 -7 8 -9 8 -2 0 -6 -4
-9 -8z"/>
<path d="M2553 3665 c0 -8 4 -12 9 -9 5 3 6 10 3 15 -9 13 -12 11 -12 -6z"/>
<path d="M2695 3671 c-3 -5 -2 -12 3 -15 5 -3 9 1 9 9 0 17 -3 19 -12 6z"/>
<path d="M2716 3627 c3 -10 9 -15 12 -12 3 3 0 11 -7 18 -10 9 -11 8 -5 -6z"/>
<path d="M4216 3622 c-3 -4 4 -9 15 -9 23 -2 25 3 4 10 -8 4 -16 3 -19 -1z"/>
<path d="M4276 3613 c-6 -14 -5 -15 5 -6 7 7 10 15 7 18 -3 3 -9 -2 -12 -12z"/>
<path d="M2651 3607 c2 -1 13 -9 24 -17 19 -14 19 -14 6 3 -7 9 -18 17 -24 17
-6 0 -8 -1 -6 -3z"/>
<path d="M4355 3589 c-4 -6 -5 -12 -2 -15 2 -3 7 2 10 11 7 17 1 20 -8 4z"/>
<path d="M1996 3567 c3 -10 9 -15 12 -12 3 3 0 11 -7 18 -10 9 -11 8 -5 -6z"/>
<path d="M2596 3533 c-6 -14 -5 -15 5 -6 7 7 10 15 7 18 -3 3 -9 -2 -12 -12z"/>
<path d="M4276 3533 c-6 -14 -5 -15 5 -6 7 7 10 15 7 18 -3 3 -9 -2 -12 -12z"/>
<path d="M4350 3541 c0 -6 4 -13 10 -16 6 -3 7 1 4 9 -7 18 -14 21 -14 7z"/>
<path d="M4515 3531 c-3 -5 -2 -12 3 -15 5 -3 9 1 9 9 0 17 -3 19 -12 6z"/>
<path d="M2526 3522 c-3 -5 1 -9 9 -9 8 0 12 4 9 9 -3 4 -7 8 -9 8 -2 0 -6 -4
-9 -8z"/>
<path d="M2655 3499 c-3 -4 2 -6 10 -5 21 3 28 13 10 13 -9 0 -18 -4 -20 -8z"/>
<path d="M4255 3501 c-3 -5 -2 -12 3 -15 5 -3 9 1 9 9 0 17 -3 19 -12 6z"/>
<path d="M2570 3486 c0 -2 7 -7 16 -10 8 -3 12 -2 9 4 -6 10 -25 14 -25 6z"/>
<path d="M2630 3460 c0 -5 5 -10 11 -10 5 0 7 5 4 10 -3 6 -8 10 -11 10 -2 0
-4 -4 -4 -10z"/>
<path d="M4310 3460 c0 -5 5 -10 11 -10 5 0 7 5 4 10 -3 6 -8 10 -11 10 -2 0
-4 -4 -4 -10z"/>
<path d="M4356 3453 c-6 -14 -5 -15 5 -6 7 7 10 15 7 18 -3 3 -9 -2 -12 -12z"/>
<path d="M5109 3443 c-13 -16 -12 -17 4 -4 9 7 17 15 17 17 0 8 -8 3 -21 -13z"/>
<path d="M2577 3435 c-4 -8 -3 -16 1 -19 4 -3 9 4 9 15 2 23 -3 25 -10 4z"/>
<path d="M2653 3415 c0 -8 4 -12 9 -9 5 3 6 10 3 15 -9 13 -12 11 -12 -6z"/>
<path d="M4515 3409 c-4 -6 -5 -12 -2 -15 2 -3 7 2 10 11 7 17 1 20 -8 4z"/>
<path d="M4556 3393 c-6 -14 -5 -15 5 -6 7 7 10 15 7 18 -3 3 -9 -2 -12 -12z"/>
<path d="M2619 3388 c-5 -18 -6 -38 -1 -34 7 8 12 36 6 36 -2 0 -4 -1 -5 -2z"/>
<path d="M2356 3358 c3 -5 10 -6 15 -3 13 9 11 12 -6 12 -8 0 -12 -4 -9 -9z"/>
<path d="M4334 3356 c1 -8 5 -18 8 -22 4 -3 5 1 4 10 -1 8 -5 18 -8 22 -4 3
-5 -1 -4 -10z"/>
<path d="M2436 3347 c3 -10 9 -15 12 -12 3 3 0 11 -7 18 -10 9 -11 8 -5 -6z"/>
<path d="M4296 3338 c3 -5 10 -6 15 -3 13 9 11 12 -6 12 -8 0 -12 -4 -9 -9z"/>
<path d="M2530 3319 c0 -5 5 -7 10 -4 6 3 10 8 10 11 0 2 -4 4 -10 4 -5 0 -10
-5 -10 -11z"/>
<path d="M2635 3321 c-3 -5 -2 -12 3 -15 5 -3 9 1 9 9 0 17 -3 19 -12 6z"/>
<path d="M2433 3295 c0 -8 4 -12 9 -9 5 3 6 10 3 15 -9 13 -12 11 -12 -6z"/>
<path d="M2475 3300 c-3 -5 -1 -10 4 -10 6 0 11 5 11 10 0 6 -2 10 -4 10 -3 0
-8 -4 -11 -10z"/>
<path d="M2530 3280 c0 -5 5 -10 11 -10 5 0 7 5 4 10 -3 6 -8 10 -11 10 -2 0
-4 -4 -4 -10z"/>
<path d="M5187 3279 c7 -7 15 -10 18 -7 3 3 -2 9 -12 12 -14 6 -15 5 -6 -5z"/>
<path d="M2595 3259 c-3 -4 2 -6 10 -5 21 3 28 13 10 13 -9 0 -18 -4 -20 -8z"/>
<path d="M2069 3243 c-13 -16 -12 -17 4 -4 16 13 21 21 13 21 -2 0 -10 -8 -17
-17z"/>
<path d="M2475 3241 c-3 -5 -2 -12 3 -15 5 -3 9 1 9 9 0 17 -3 19 -12 6z"/>
<path d="M4337 3235 c-4 -8 -3 -16 1 -19 4 -3 9 4 9 15 2 23 -3 25 -10 4z"/>
<path d="M4553 3235 c0 -8 4 -12 9 -9 5 3 6 10 3 15 -9 13 -12 11 -12 -6z"/>
<path d="M4620 3246 c0 -2 8 -10 18 -17 15 -13 16 -12 3 4 -13 16 -21 21 -21
13z"/>
<path d="M4949 3203 c-13 -16 -12 -17 4 -4 16 13 21 21 13 21 -2 0 -10 -8 -17
-17z"/>
<path d="M2579 3208 c-5 -18 -6 -38 -1 -34 7 8 12 36 6 36 -2 0 -4 -1 -5 -2z"/>
<path d="M5270 3206 c0 -2 7 -7 16 -10 8 -3 12 -2 9 4 -6 10 -25 14 -25 6z"/>
<path d="M2313 3185 c0 -8 4 -12 9 -9 5 3 6 10 3 15 -9 13 -12 11 -12 -6z"/>
<path d="M2430 3179 c0 -5 5 -7 10 -4 6 3 10 8 10 11 0 2 -4 4 -10 4 -5 0 -10
-5 -10 -11z"/>
<path d="M2475 3180 c3 -5 8 -10 11 -10 2 0 4 5 4 10 0 6 -5 10 -11 10 -5 0
-7 -4 -4 -10z"/>
<path d="M4333 3175 c0 -8 4 -12 9 -9 5 3 6 10 3 15 -9 13 -12 11 -12 -6z"/>
<path d="M4395 3160 c-3 -5 -1 -10 4 -10 6 0 11 5 11 10 0 6 -2 10 -4 10 -3 0
-8 -4 -11 -10z"/>
<path d="M4449 3157 c6 -8 7 -18 3 -22 -4 -5 -1 -5 6 -1 10 6 10 11 1 22 -6 8
-14 14 -16 14 -3 0 0 -6 6 -13z"/>
<path d="M2494 3142 c4 -3 14 -7 22 -8 9 -1 13 0 10 4 -4 3 -14 7 -22 8 -9 1
-13 0 -10 -4z"/>
<path d="M4500 3120 c-9 -6 -10 -10 -3 -10 6 0 15 5 18 10 8 12 4 12 -15 0z"/>
<path d="M5230 3119 c0 -5 5 -7 10 -4 6 3 10 8 10 11 0 2 -4 4 -10 4 -5 0 -10
-5 -10 -11z"/>
<path d="M4355 3099 c-3 -4 2 -6 10 -5 21 3 28 13 10 13 -9 0 -18 -4 -20 -8z"/>
<path d="M4414 3102 c4 -3 14 -7 22 -8 9 -1 13 0 10 4 -4 3 -14 7 -22 8 -9 1
-13 0 -10 -4z"/>
<path d="M5196 3087 c3 -10 9 -15 12 -12 3 3 0 11 -7 18 -10 9 -11 8 -5 -6z"/>
<path d="M2575 3080 c-3 -5 -1 -10 4 -10 6 0 11 5 11 10 0 6 -2 10 -4 10 -3 0
-8 -4 -11 -10z"/>
<path d="M2536 3058 c3 -5 10 -6 15 -3 13 9 11 12 -6 12 -8 0 -12 -4 -9 -9z"/>
<path d="M4374 3058 c-4 -7 -4 -10 1 -6 4 4 15 2 24 -5 14 -11 14 -10 2 6 -16
20 -18 21 -27 5z"/>
<path d="M2414 3036 c1 -8 5 -18 8 -22 4 -3 5 1 4 10 -1 8 -5 18 -8 22 -4 3
-5 -1 -4 -10z"/>
<path d="M2559 3033 c-13 -16 -12 -17 4 -4 16 13 21 21 13 21 -2 0 -10 -8 -17
-17z"/>
<path d="M4459 3048 c-5 -18 -6 -38 -1 -34 7 8 12 36 6 36 -2 0 -4 -1 -5 -2z"/>
<path d="M2475 3000 c3 -5 8 -10 11 -10 2 0 4 5 4 10 0 6 -5 10 -11 10 -5 0
-7 -4 -4 -10z"/>
<path d="M4566 2998 c3 -5 10 -6 15 -3 13 9 11 12 -6 12 -8 0 -12 -4 -9 -9z"/>
<path d="M4615 3000 c-3 -5 -1 -10 4 -10 6 0 11 5 11 10 0 6 -2 10 -4 10 -3 0
-8 -4 -11 -10z"/>
<path d="M2533 2975 c0 -8 4 -12 9 -9 5 3 6 10 3 15 -9 13 -12 11 -12 -6z"/>
<path d="M4755 2960 c3 -5 8 -10 11 -10 2 0 4 5 4 10 0 6 -5 10 -11 10 -5 0
-7 -4 -4 -10z"/>
<path d="M2390 2957 c0 -2 6 -10 14 -16 11 -9 16 -9 22 1 4 7 4 10 -1 6 -4 -4
-14 -3 -22 3 -7 6 -13 9 -13 6z"/>
<path d="M2456 2942 c-3 -5 1 -9 9 -9 8 0 12 4 9 9 -3 4 -7 8 -9 8 -2 0 -6 -4
-9 -8z"/>
<path d="M4406 2938 c3 -5 10 -6 15 -3 13 9 11 12 -6 12 -8 0 -12 -4 -9 -9z"/>
<path d="M4456 2942 c-3 -4 4 -9 15 -9 23 -2 25 3 4 10 -8 4 -16 3 -19 -1z"/>
<path d="M4590 2939 c0 -5 5 -7 10 -4 6 3 10 8 10 11 0 2 -4 4 -10 4 -5 0 -10
-5 -10 -11z"/>
<path d="M4835 2931 c-3 -5 -2 -12 3 -15 5 -3 9 1 9 9 0 17 -3 19 -12 6z"/>
<path d="M4474 2902 c4 -3 14 -7 22 -8 9 -1 13 0 10 4 -4 3 -14 7 -22 8 -9 1
-13 0 -10 -4z"/>
<path d="M4536 2898 c3 -5 10 -6 15 -3 13 9 11 12 -6 12 -8 0 -12 -4 -9 -9z"/>
<path d="M4630 2901 c0 -6 4 -13 10 -16 6 -3 7 1 4 9 -7 18 -14 21 -14 7z"/>
<path d="M2155 2880 c-3 -5 -1 -10 4 -10 6 0 11 5 11 10 0 6 -2 10 -4 10 -3 0
-8 -4 -11 -10z"/>
<path d="M4575 2880 c-3 -5 -1 -10 4 -10 6 0 11 5 11 10 0 6 -2 10 -4 10 -3 0
-8 -4 -11 -10z"/>
<path d="M4826 2878 c3 -5 10 -6 15 -3 13 9 11 12 -6 12 -8 0 -12 -4 -9 -9z"/>
<path d="M2413 2849 c-2 -23 3 -25 10 -4 4 8 3 16 -1 19 -4 3 -9 -4 -9 -15z"/>
<path d="M4456 2862 c-2 -4 -1 -14 4 -22 7 -11 9 -9 7 8 -1 24 -3 26 -11 14z"/>
<path d="M2290 2846 c0 -2 7 -7 16 -10 8 -3 12 -2 9 4 -6 10 -25 14 -25 6z"/>
<path d="M2355 2819 c-3 -4 2 -6 10 -5 21 3 28 13 10 13 -9 0 -18 -4 -20 -8z"/>
<path d="M2490 2819 c0 -5 5 -7 10 -4 6 3 10 8 10 11 0 2 -4 4 -10 4 -5 0 -10
-5 -10 -11z"/>
<path d="M4499 2828 c-5 -18 -6 -38 -1 -34 7 8 12 36 6 36 -2 0 -4 -1 -5 -2z"/>
<path d="M4613 2809 c-2 -23 3 -25 10 -4 4 8 3 16 -1 19 -4 3 -9 -4 -9 -15z"/>
<path d="M4655 2800 c3 -5 8 -10 11 -10 2 0 4 5 4 10 0 6 -5 10 -11 10 -5 0
-7 -4 -4 -10z"/>
<path d="M4550 2797 c0 -2 6 -10 14 -16 11 -9 16 -9 22 1 4 7 4 10 -1 6 -4 -4
-14 -3 -22 3 -7 6 -13 9 -13 6z"/>
<path d="M2450 2780 c0 -5 5 -10 11 -10 5 0 7 5 4 10 -3 6 -8 10 -11 10 -2 0
-4 -4 -4 -10z"/>
<path d="M4470 2759 c0 -5 5 -7 10 -4 6 3 10 8 10 11 0 2 -4 4 -10 4 -5 0 -10
-5 -10 -11z"/>
<path d="M4655 2760 c-3 -5 -1 -10 4 -10 6 0 11 5 11 10 0 6 -2 10 -4 10 -3 0
-8 -4 -11 -10z"/>
<path d="M2333 2745 c0 -8 4 -12 9 -9 5 3 6 10 3 15 -9 13 -12 11 -12 -6z"/>
<path d="M4750 2741 c0 -6 4 -13 10 -16 6 -3 7 1 4 9 -7 18 -14 21 -14 7z"/>
<path d="M2393 2725 c0 -8 4 -15 9 -15 4 0 8 4 8 9 0 6 -4 12 -8 15 -5 3 -9
-1 -9 -9z"/>
<path d="M2205 2720 c-3 -6 1 -7 9 -4 18 7 21 14 7 14 -6 0 -13 -4 -16 -10z"/>
<path d="M2610 2580 c0 -5 5 -10 11 -10 5 0 7 5 4 10 -3 6 -8 10 -11 10 -2 0
-4 -4 -4 -10z"/>
<path d="M4493 2569 c-2 -23 3 -25 10 -4 4 8 3 16 -1 19 -4 3 -9 -4 -9 -15z"/>
<path d="M3075 2570 c-4 -6 -11 -7 -17 -4 -7 4 -8 2 -4 -5 6 -9 11 -9 22 0 14
11 18 19 10 19 -3 0 -8 -5 -11 -10z"/>
<path d="M3470 2576 c0 -2 8 -10 18 -17 15 -13 16 -12 3 4 -13 16 -21 21 -21
13z"/>
<path d="M2290 2560 c0 -5 5 -10 11 -10 5 0 7 5 4 10 -3 6 -8 10 -11 10 -2 0
-4 -4 -4 -10z"/>
<path d="M2334 2556 c1 -8 5 -18 8 -22 4 -3 5 1 4 10 -1 8 -5 18 -8 22 -4 3
-5 -1 -4 -10z"/>
<path d="M2860 2566 c0 -2 8 -10 18 -17 15 -13 16 -12 3 4 -13 16 -21 21 -21
13z"/>
<path d="M2999 2553 c-13 -16 -12 -17 4 -4 16 13 21 21 13 21 -2 0 -10 -8 -17
-17z"/>
<path d="M3590 2560 c0 -5 5 -10 11 -10 5 0 7 5 4 10 -3 6 -8 10 -11 10 -2 0
-4 -4 -4 -10z"/>
<path d="M3833 2555 c0 -8 4 -12 9 -9 5 3 6 10 3 15 -9 13 -12 11 -12 -6z"/>
<path d="M2610 2540 c0 -5 5 -10 11 -10 5 0 7 5 4 10 -3 6 -8 10 -11 10 -2 0
-4 -4 -4 -10z"/>
<path d="M2655 2540 c-3 -5 -1 -10 4 -10 6 0 11 5 11 10 0 6 -2 10 -4 10 -3 0
-8 -4 -11 -10z"/>
<path d="M3095 2529 c-4 -6 -5 -12 -2 -15 2 -3 7 2 10 11 7 17 1 20 -8 4z"/>
<path d="M3130 2536 c0 -2 8 -10 18 -17 15 -13 16 -12 3 4 -13 16 -21 21 -21
13z"/>
<path d="M4156 2522 c-3 -5 1 -9 9 -9 8 0 12 4 9 9 -3 4 -7 8 -9 8 -2 0 -6 -4
-9 -8z"/>
<path d="M3350 2506 c0 -2 7 -7 16 -10 8 -3 12 -2 9 4 -6 10 -25 14 -25 6z"/>
<path d="M3840 2500 c-9 -6 -10 -10 -3 -10 6 0 15 5 18 10 8 12 4 12 -15 0z"/>
<path d="M4535 2499 c-3 -4 2 -6 10 -5 21 3 28 13 10 13 -9 0 -18 -4 -20 -8z"/>
<path d="M4670 2500 c0 -5 5 -10 11 -10 5 0 7 5 4 10 -3 6 -8 10 -11 10 -2 0
-4 -4 -4 -10z"/>
<path d="M4715 2500 c-3 -5 -1 -10 4 -10 6 0 11 5 11 10 0 6 -2 10 -4 10 -3 0
-8 -4 -11 -10z"/>
<path d="M3513 2485 c0 -8 4 -12 9 -9 5 3 6 10 3 15 -9 13 -12 11 -12 -6z"/>
<path d="M3420 2486 c0 -2 8 -10 18 -17 15 -13 16 -12 3 4 -13 16 -21 21 -21
13z"/>
<path d="M3479 2473 c-13 -16 -12 -17 4 -4 16 13 21 21 13 21 -2 0 -10 -8 -17
-17z"/>
<path d="M2395 2470 c-4 -6 -12 -7 -18 -4 -7 4 -8 3 -4 -1 13 -15 34 -14 34 1
0 17 -4 18 -12 4z"/>
<path d="M2326 2462 c-3 -5 1 -9 9 -9 8 0 12 4 9 9 -3 4 -7 8 -9 8 -2 0 -6 -4
-9 -8z"/>
<path d="M4606 2462 c-3 -5 1 -9 9 -9 8 0 12 4 9 9 -3 4 -7 8 -9 8 -2 0 -6 -4
-9 -8z"/>
<path d="M2829 2443 c-13 -16 -12 -17 4 -4 16 13 21 21 13 21 -2 0 -10 -8 -17
-17z"/>
<path d="M3310 2456 c0 -2 8 -10 18 -17 15 -13 16 -12 3 4 -13 16 -21 21 -21
13z"/>
<path d="M4116 2447 c3 -10 9 -15 12 -12 3 3 0 11 -7 18 -10 9 -11 8 -5 -6z"/>
<path d="M3800 2440 c-9 -6 -10 -10 -3 -10 6 0 15 5 18 10 8 12 4 12 -15 0z"/>
<path d="M3915 2441 c-3 -5 -2 -12 3 -15 5 -3 9 1 9 9 0 17 -3 19 -12 6z"/>
<path d="M4573 2425 c0 -8 4 -12 9 -9 5 3 6 10 3 15 -9 13 -12 11 -12 -6z"/>
<path d="M2575 2420 c-3 -5 -1 -10 4 -10 6 0 11 5 11 10 0 6 -2 10 -4 10 -3 0
-8 -4 -11 -10z"/>
<path d="M2935 2420 c3 -5 8 -10 11 -10 2 0 4 5 4 10 0 6 -5 10 -11 10 -5 0
-7 -4 -4 -10z"/>
<path d="M4330 2419 c0 -5 5 -7 10 -4 6 3 10 8 10 11 0 2 -4 4 -10 4 -5 0 -10
-5 -10 -11z"/>
<path d="M4670 2420 c0 -5 5 -10 11 -10 5 0 7 5 4 10 -3 6 -8 10 -11 10 -2 0
-4 -4 -4 -10z"/>
<path d="M3120 2400 c-9 -6 -10 -10 -3 -10 6 0 15 5 18 10 8 12 4 12 -15 0z"/>
<path d="M3905 2399 c-3 -4 2 -6 10 -5 21 3 28 13 10 13 -9 0 -18 -4 -20 -8z"/>
<path d="M4000 2400 c-9 -6 -10 -10 -3 -10 6 0 15 5 18 10 8 12 4 12 -15 0z"/>
<path d="M2350 2379 c0 -5 5 -7 10 -4 6 3 10 8 10 11 0 2 -4 4 -10 4 -5 0 -10
-5 -10 -11z"/>
<path d="M2530 2380 c0 -5 5 -10 11 -10 5 0 7 5 4 10 -3 6 -8 10 -11 10 -2 0
-4 -4 -4 -10z"/>
<path d="M2855 2380 c-3 -5 -1 -10 4 -10 6 0 11 5 11 10 0 6 -2 10 -4 10 -3 0
-8 -4 -11 -10z"/>
<path d="M4075 2369 c-4 -6 -5 -12 -2 -15 2 -3 7 2 10 11 7 17 1 20 -8 4z"/>
<path d="M3316 2353 c-6 -14 -5 -15 5 -6 7 7 10 15 7 18 -3 3 -9 -2 -12 -12z"/>
<path d="M3399 2353 c-13 -16 -12 -17 4 -4 9 7 17 15 17 17 0 8 -8 3 -21 -13z"/>
<path d="M4860 2366 c0 -2 8 -10 18 -17 15 -13 16 -12 3 4 -13 16 -21 21 -21
13z"/>
<path d="M2310 2340 c0 -5 5 -10 11 -10 5 0 7 5 4 10 -3 6 -8 10 -11 10 -2 0
-4 -4 -4 -10z"/>
<path d="M2855 2340 c3 -5 8 -10 11 -10 2 0 4 5 4 10 0 6 -5 10 -11 10 -5 0
-7 -4 -4 -10z"/>
<path d="M2975 2340 c-3 -5 -1 -10 4 -10 6 0 11 5 11 10 0 6 -2 10 -4 10 -3 0
-8 -4 -11 -10z"/>
<path d="M3970 2340 c0 -5 5 -10 11 -10 5 0 7 5 4 10 -3 6 -8 10 -11 10 -2 0
-4 -4 -4 -10z"/>
<path d="M4115 2331 c-3 -5 -2 -12 3 -15 5 -3 9 1 9 9 0 17 -3 19 -12 6z"/>
<path d="M4035 2320 c3 -5 8 -10 11 -10 2 0 4 5 4 10 0 6 -5 10 -11 10 -5 0
-7 -4 -4 -10z"/>
<path d="M4070 2320 c0 -5 5 -10 11 -10 5 0 7 5 4 10 -3 6 -8 10 -11 10 -2 0
-4 -4 -4 -10z"/>
<path d="M4419 2328 c-5 -18 -6 -38 -1 -34 7 8 12 36 6 36 -2 0 -4 -1 -5 -2z"/>
<path d="M2335 2301 c-3 -5 -2 -12 3 -15 5 -3 9 1 9 9 0 17 -3 19 -12 6z"/>
<path d="M2815 2300 c3 -5 8 -10 11 -10 2 0 4 5 4 10 0 6 -5 10 -11 10 -5 0
-7 -4 -4 -10z"/>
<path d="M2850 2300 c0 -5 5 -10 11 -10 5 0 7 5 4 10 -3 6 -8 10 -11 10 -2 0
-4 -4 -4 -10z"/>
<path d="M3930 2300 c0 -5 5 -10 11 -10 5 0 7 5 4 10 -3 6 -8 10 -11 10 -2 0
-4 -4 -4 -10z"/>
<path d="M3970 2300 c0 -5 5 -10 11 -10 5 0 7 5 4 10 -3 6 -8 10 -11 10 -2 0
-4 -4 -4 -10z"/>
<path d="M4876 2298 c3 -5 10 -6 15 -3 13 9 11 12 -6 12 -8 0 -12 -4 -9 -9z"/>
<path d="M3390 2296 c0 -2 8 -10 18 -17 15 -13 16 -12 3 4 -13 16 -21 21 -21
13z"/>
<path d="M4835 2291 c-3 -5 -2 -12 3 -15 5 -3 9 1 9 9 0 17 -3 19 -12 6z"/>
<path d="M2505 2280 c-3 -6 1 -7 9 -4 18 7 21 14 7 14 -6 0 -13 -4 -16 -10z"/>
<path d="M2730 2279 c0 -5 5 -7 10 -4 6 3 10 8 10 11 0 2 -4 4 -10 4 -5 0 -10
-5 -10 -11z"/>
<path d="M4655 2280 c3 -5 8 -10 11 -10 2 0 4 5 4 10 0 6 -5 10 -11 10 -5 0
-7 -4 -4 -10z"/>
<path d="M2566 2262 c-3 -5 1 -9 9 -9 8 0 12 4 9 9 -3 4 -7 8 -9 8 -2 0 -6 -4
-9 -8z"/>
<path d="M2855 2260 c3 -5 8 -10 11 -10 2 0 4 5 4 10 0 6 -5 10 -11 10 -5 0
-7 -4 -4 -10z"/>
<path d="M3455 2260 c-3 -5 -1 -10 4 -10 6 0 11 5 11 10 0 6 -2 10 -4 10 -3 0
-8 -4 -11 -10z"/>
<path d="M3490 2259 c0 -5 5 -7 10 -4 6 3 10 8 10 11 0 2 -4 4 -10 4 -5 0 -10
-5 -10 -11z"/>
<path d="M3935 2260 c3 -5 8 -10 11 -10 2 0 4 5 4 10 0 6 -5 10 -11 10 -5 0
-7 -4 -4 -10z"/>
<path d="M2753 2245 c0 -8 4 -12 9 -9 5 3 6 10 3 15 -9 13 -12 11 -12 -6z"/>
<path d="M2285 2240 c-3 -6 1 -7 9 -4 18 7 21 14 7 14 -6 0 -13 -4 -16 -10z"/>
<path d="M3875 2241 c-3 -5 -2 -12 3 -15 5 -3 9 1 9 9 0 17 -3 19 -12 6z"/>
<path d="M4750 2239 c0 -5 5 -7 10 -4 6 3 10 8 10 11 0 2 -4 4 -10 4 -5 0 -10
-5 -10 -11z"/>
<path d="M2850 2219 c0 -5 5 -7 10 -4 6 3 10 8 10 11 0 2 -4 4 -10 4 -5 0 -10
-5 -10 -11z"/>
<path d="M2895 2220 c-3 -5 -1 -10 4 -10 6 0 11 5 11 10 0 6 -2 10 -4 10 -3 0
-8 -4 -11 -10z"/>
<path d="M2975 2220 c3 -5 8 -10 11 -10 2 0 4 5 4 10 0 6 -5 10 -11 10 -5 0
-7 -4 -4 -10z"/>
<path d="M3015 2220 c-3 -5 -1 -10 4 -10 6 0 11 5 11 10 0 6 -2 10 -4 10 -3 0
-8 -4 -11 -10z"/>
<path d="M3050 2219 c0 -5 5 -7 10 -4 6 3 10 8 10 11 0 2 -4 4 -10 4 -5 0 -10
-5 -10 -11z"/>
<path d="M3455 2220 c-3 -5 -1 -10 4 -10 6 0 11 5 11 10 0 6 -2 10 -4 10 -3 0
-8 -4 -11 -10z"/>
<path d="M3495 2220 c-3 -5 -1 -10 4 -10 6 0 11 5 11 10 0 6 -2 10 -4 10 -3 0
-8 -4 -11 -10z"/>
<path d="M3690 2219 c0 -5 5 -7 10 -4 6 3 10 8 10 11 0 2 -4 4 -10 4 -5 0 -10
-5 -10 -11z"/>
<path d="M4090 2219 c0 -5 5 -7 10 -4 6 3 10 8 10 11 0 2 -4 4 -10 4 -5 0 -10
-5 -10 -11z"/>
<path d="M4216 2222 c-3 -4 4 -9 15 -9 23 -2 25 3 4 10 -8 4 -16 3 -19 -1z"/>
<path d="M4375 2221 c-3 -5 -2 -12 3 -15 5 -3 9 1 9 9 0 17 -3 19 -12 6z"/>
<path d="M2539 2208 c-5 -18 -6 -38 -1 -34 7 8 12 36 6 36 -2 0 -4 -1 -5 -2z"/>
<path d="M3876 2198 c3 -5 10 -6 15 -3 13 9 11 12 -6 12 -8 0 -12 -4 -9 -9z"/>
<path d="M3919 2193 c-13 -16 -12 -17 4 -4 9 7 17 15 17 17 0 8 -8 3 -21 -13z"/>
<path d="M4039 2193 c-13 -16 -12 -17 4 -4 9 7 17 15 17 17 0 8 -8 3 -21 -13z"/>
<path d="M2895 2191 c-3 -5 -2 -12 3 -15 5 -3 9 1 9 9 0 17 -3 19 -12 6z"/>
<path d="M3335 2180 c-3 -5 -1 -10 4 -10 6 0 11 5 11 10 0 6 -2 10 -4 10 -3 0
-8 -4 -11 -10z"/>
<path d="M3375 2180 c3 -5 8 -10 11 -10 2 0 4 5 4 10 0 6 -5 10 -11 10 -5 0
-7 -4 -4 -10z"/>
<path d="M3610 2180 c0 -5 5 -10 11 -10 5 0 7 5 4 10 -3 6 -8 10 -11 10 -2 0
-4 -4 -4 -10z"/>
<path d="M3655 2180 c-3 -5 -1 -10 4 -10 6 0 11 5 11 10 0 6 -2 10 -4 10 -3 0
-8 -4 -11 -10z"/>
<path d="M4075 2160 c-3 -5 -1 -10 4 -10 6 0 11 5 11 10 0 6 -2 10 -4 10 -3 0
-8 -4 -11 -10z"/>
<path d="M2510 2139 c0 -5 5 -7 10 -4 6 3 10 8 10 11 0 2 -4 4 -10 4 -5 0 -10
-5 -10 -11z"/>
<path d="M2730 2139 c0 -5 5 -7 10 -4 6 3 10 8 10 11 0 2 -4 4 -10 4 -5 0 -10
-5 -10 -11z"/>
<path d="M2806 2142 c-3 -5 1 -9 9 -9 8 0 12 4 9 9 -3 4 -7 8 -9 8 -2 0 -6 -4
-9 -8z"/>
<path d="M3010 2140 c0 -5 5 -10 11 -10 5 0 7 5 4 10 -3 6 -8 10 -11 10 -2 0
-4 -4 -4 -10z"/>
<path d="M3690 2139 c0 -5 5 -7 10 -4 6 3 10 8 10 11 0 2 -4 4 -10 4 -5 0 -10
-5 -10 -11z"/>
<path d="M3853 2135 c0 -8 4 -12 9 -9 5 3 6 10 3 15 -9 13 -12 11 -12 -6z"/>
<path d="M3886 2138 c3 -5 10 -6 15 -3 13 9 11 12 -6 12 -8 0 -12 -4 -9 -9z"/>
<path d="M4015 2140 c3 -5 8 -10 11 -10 2 0 4 5 4 10 0 6 -5 10 -11 10 -5 0
-7 -4 -4 -10z"/>
<path d="M4114 2142 c4 -3 14 -7 22 -8 9 -1 13 0 10 4 -4 3 -14 7 -22 8 -9 1
-13 0 -10 -4z"/>
<path d="M4215 2141 c-3 -5 -2 -12 3 -15 5 -3 9 1 9 9 0 17 -3 19 -12 6z"/>
<path d="M4416 2142 c-3 -5 1 -9 9 -9 8 0 12 4 9 9 -3 4 -7 8 -9 8 -2 0 -6 -4
-9 -8z"/>
<path d="M3253 2111 c0 -11 5 -18 9 -15 4 3 5 11 1 19 -7 21 -12 19 -10 -4z"/>
<path d="M3395 2120 c-3 -5 -1 -10 4 -10 6 0 11 5 11 10 0 6 -2 10 -4 10 -3 0
-8 -4 -11 -10z"/>
<path d="M3470 2120 c0 -5 5 -10 11 -10 5 0 7 5 4 10 -3 6 -8 10 -11 10 -2 0
-4 -4 -4 -10z"/>
<path d="M2815 2100 c3 -5 8 -10 11 -10 2 0 4 5 4 10 0 6 -5 10 -11 10 -5 0
-7 -4 -4 -10z"/>
<path d="M2970 2099 c0 -5 5 -7 10 -4 6 3 10 8 10 11 0 2 -4 4 -10 4 -5 0 -10
-5 -10 -11z"/>
<path d="M3554 2102 c4 -3 14 -7 22 -8 9 -1 13 0 10 4 -4 3 -14 7 -22 8 -9 1
-13 0 -10 -4z"/>
<path d="M3926 2098 c3 -5 10 -6 15 -3 13 9 11 12 -6 12 -8 0 -12 -4 -9 -9z"/>
<path d="M3975 2099 c-3 -4 2 -6 10 -5 21 3 28 13 10 13 -9 0 -18 -4 -20 -8z"/>
<path d="M4115 2099 c-3 -4 2 -6 10 -5 21 3 28 13 10 13 -9 0 -18 -4 -20 -8z"/>
<path d="M2495 2080 c-3 -5 -1 -10 4 -10 6 0 11 5 11 10 0 6 -2 10 -4 10 -3 0
-8 -4 -11 -10z"/>
<path d="M2706 2082 c-3 -5 1 -9 9 -9 8 0 12 4 9 9 -3 4 -7 8 -9 8 -2 0 -6 -4
-9 -8z"/>
<path d="M2894 2076 c1 -8 5 -18 8 -22 4 -3 5 1 4 10 -1 8 -5 18 -8 22 -4 3
-5 -1 -4 -10z"/>
<path d="M3414 2076 c1 -8 5 -18 8 -22 4 -3 5 1 4 10 -1 8 -5 18 -8 22 -4 3
-5 -1 -4 -10z"/>
<path d="M3494 2076 c1 -8 5 -18 8 -22 4 -3 5 1 4 10 -1 8 -5 18 -8 22 -4 3
-5 -1 -4 -10z"/>
<path d="M2750 2065 c0 -7 30 -13 34 -7 3 4 -4 9 -15 9 -10 1 -19 0 -19 -2z"/>
<path d="M3040 2060 c-12 -7 -10 -9 7 -7 12 0 19 5 17 9 -6 10 -6 10 -24 -2z"/>
<path d="M3275 2059 c-3 -4 2 -6 10 -5 21 3 28 13 10 13 -9 0 -18 -4 -20 -8z"/>
<path d="M3614 2062 c4 -3 14 -7 22 -8 9 -1 13 0 10 4 -4 3 -14 7 -22 8 -9 1
-13 0 -10 -4z"/>
<path d="M3995 2059 c-3 -4 2 -6 10 -5 21 3 28 13 10 13 -9 0 -18 -4 -20 -8z"/>
<path d="M4054 2062 c4 -3 14 -7 22 -8 9 -1 13 0 10 4 -4 3 -14 7 -22 8 -9 1
-13 0 -10 -4z"/>
<path d="M4176 2062 c-3 -5 1 -9 9 -9 8 0 12 4 9 9 -3 4 -7 8 -9 8 -2 0 -6 -4
-9 -8z"/>
<path d="M4235 2060 c3 -5 8 -10 11 -10 2 0 4 5 4 10 0 6 -5 10 -11 10 -5 0
-7 -4 -4 -10z"/>
<path d="M3510 2037 c0 -2 6 -10 14 -16 11 -9 16 -9 22 1 4 7 4 10 -1 6 -4 -4
-14 -3 -22 3 -7 6 -13 9 -13 6z"/>
<path d="M2630 2023 c0 -6 8 -17 18 -24 16 -13 16 -13 2 6 -8 11 -16 22 -17
24 -2 2 -3 0 -3 -6z"/>
<path d="M2856 2022 c-3 -5 1 -9 9 -9 8 0 12 4 9 9 -3 4 -7 8 -9 8 -2 0 -6 -4
-9 -8z"/>
<path d="M2934 2016 c1 -8 5 -18 8 -22 4 -3 5 1 4 10 -1 8 -5 18 -8 22 -4 3
-5 -1 -4 -10z"/>
<path d="M3214 2022 c4 -3 14 -7 22 -8 9 -1 13 0 10 4 -4 3 -14 7 -22 8 -9 1
-13 0 -10 -4z"/>
<path d="M3336 2022 c-3 -5 1 -9 9 -9 8 0 12 4 9 9 -3 4 -7 8 -9 8 -2 0 -6 -4
-9 -8z"/>
<path d="M3414 2016 c1 -8 5 -18 8 -22 4 -3 5 1 4 10 -1 8 -5 18 -8 22 -4 3
-5 -1 -4 -10z"/>
<path d="M3459 2028 c-5 -18 -6 -38 -1 -34 7 8 12 36 6 36 -2 0 -4 -1 -5 -2z"/>
<path d="M3574 2022 c4 -3 14 -7 22 -8 9 -1 13 0 10 4 -4 3 -14 7 -22 8 -9 1
-13 0 -10 -4z"/>
<path d="M3695 2019 c-3 -4 2 -6 10 -5 21 3 28 13 10 13 -9 0 -18 -4 -20 -8z"/>
<path d="M3934 2016 c1 -8 5 -18 8 -22 4 -3 5 1 4 10 -1 8 -5 18 -8 22 -4 3
-5 -1 -4 -10z"/>
<path d="M2715 2001 c-3 -5 -2 -12 3 -15 5 -3 9 1 9 9 0 17 -3 19 -12 6z"/>
<path d="M2815 2000 c-3 -5 -1 -10 4 -10 6 0 11 5 11 10 0 6 -2 10 -4 10 -3 0
-8 -4 -11 -10z"/>
<path d="M3775 2000 c-3 -5 -1 -10 4 -10 6 0 11 5 11 10 0 6 -2 10 -4 10 -3 0
-8 -4 -11 -10z"/>
<path d="M4256 2002 c-3 -5 1 -9 9 -9 8 0 12 4 9 9 -3 4 -7 8 -9 8 -2 0 -6 -4
-9 -8z"/>
<path d="M4365 2000 c-3 -6 1 -7 9 -4 18 7 21 14 7 14 -6 0 -13 -4 -16 -10z"/>
<path d="M4410 2006 c0 -2 7 -7 16 -10 8 -3 12 -2 9 4 -6 10 -25 14 -25 6z"/>
<path d="M3035 1989 c-4 -6 -5 -12 -2 -15 2 -3 7 2 10 11 7 17 1 20 -8 4z"/>
<path d="M4195 1989 c-4 -6 -5 -12 -2 -15 2 -3 7 2 10 11 7 17 1 20 -8 4z"/>
<path d="M3733 1975 c0 -8 4 -12 9 -9 5 3 6 10 3 15 -9 13 -12 11 -12 -6z"/>
<path d="M3430 1960 c0 -5 5 -10 11 -10 5 0 7 5 4 10 -3 6 -8 10 -11 10 -2 0
-4 -4 -4 -10z"/>
<path d="M3253 1945 c0 -8 4 -12 9 -9 5 3 6 10 3 15 -9 13 -12 11 -12 -6z"/>
<path d="M2926 1938 c3 -5 10 -6 15 -3 13 9 11 12 -6 12 -8 0 -12 -4 -9 -9z"/>
<path d="M2990 1941 c0 -6 4 -13 10 -16 6 -3 7 1 4 9 -7 18 -14 21 -14 7z"/>
<path d="M3776 1942 c-2 -4 -1 -14 4 -22 7 -11 9 -9 7 8 -1 24 -3 26 -11 14z"/>
<path d="M3110 1936 c0 -2 8 -10 18 -17 15 -13 16 -12 3 4 -13 16 -21 21 -21
13z"/>
<path d="M3235 1909 c-4 -6 -5 -12 -2 -15 2 -3 7 2 10 11 7 17 1 20 -8 4z"/>
<path d="M3636 1907 c3 -10 9 -15 12 -12 3 3 0 11 -7 18 -10 9 -11 8 -5 -6z"/>
<path d="M3730 1886 c0 -2 7 -7 16 -10 8 -3 12 -2 9 4 -6 10 -25 14 -25 6z"/>
<path d="M4155 1880 c3 -5 8 -10 11 -10 2 0 4 5 4 10 0 6 -5 10 -11 10 -5 0
-7 -4 -4 -10z"/>
<path d="M3475 1861 c-3 -5 -2 -12 3 -15 5 -3 9 1 9 9 0 17 -3 19 -12 6z"/>
<path d="M3550 1861 c0 -6 4 -13 10 -16 6 -3 7 1 4 9 -7 18 -14 21 -14 7z"/>
<path d="M2993 1845 c0 -8 4 -12 9 -9 5 3 6 10 3 15 -9 13 -12 11 -12 -6z"/>
<path d="M3713 1795 c0 -8 4 -12 9 -9 5 3 6 10 3 15 -9 13 -12 11 -12 -6z"/>
<path d="M3466 1758 c3 -5 10 -6 15 -3 13 9 11 12 -6 12 -8 0 -12 -4 -9 -9z"/>
<path d="M1586 2882 c-3 -5 1 -9 9 -9 8 0 12 4 9 9 -3 4 -7 8 -9 8 -2 0 -6 -4
-9 -8z"/>
<path d="M4713 1925 c0 -8 4 -12 9 -9 5 3 6 10 3 15 -9 13 -12 11 -12 -6z"/>
<path d="M4267 1679 c7 -7 15 -10 18 -7 3 3 -2 9 -12 12 -14 6 -15 5 -6 -5z"/>
<path d="M3633 1515 c0 -8 4 -12 9 -9 5 3 6 10 3 15 -9 13 -12 11 -12 -6z"/>
<path d="M1870 2041 c0 -6 4 -13 10 -16 6 -3 7 1 4 9 -7 18 -14 21 -14 7z"/>
<path d="M1916 1978 c3 -5 10 -6 15 -3 13 9 11 12 -6 12 -8 0 -12 -4 -9 -9z"/>
<path d="M2955 1400 c3 -5 8 -10 11 -10 2 0 4 5 4 10 0 6 -5 10 -11 10 -5 0
-7 -4 -4 -10z"/>
</g>
</svg>
