<?xml version="1.0" standalone="no"?>
<!DOCTYPE svg PUBLIC "-//W3C//DTD SVG 20010904//EN"
 "http://www.w3.org/TR/2001/REC-SVG-20010904/DTD/svg10.dtd">
<svg version="1.0" xmlns="http://www.w3.org/2000/svg"
 width="700.000000pt" height="700.000000pt" viewBox="0 0 700.000000 700.000000"
 preserveAspectRatio="xMidYMid meet">
<metadata>
Created by potrace 1.14, written by Peter Selinger 2001-2017
</metadata>
<g transform="translate(0.000000,700.000000) scale(0.100000,-0.100000)"
fill="#000000" stroke="none">
<path d="M1677 6483 c-1 -1 -168 -3 -372 -5 l-369 -4 -18 -25 c-9 -13 -167
-238 -349 -499 l-332 -475 0 -130 c0 -71 3 -323 7 -560 3 -236 6 -517 7 -623
2 -156 5 -197 18 -217 14 -21 550 -734 618 -820 13 -16 27 -34 31 -40 4 -5 28
-37 52 -70 25 -33 54 -70 65 -83 l20 -23 307 3 308 3 93 -93 c51 -50 96 -92
100 -92 4 0 21 24 38 52 17 29 43 73 59 98 16 25 29 51 29 58 1 7 -33 47 -75
88 l-76 76 63 65 c35 35 182 182 326 326 145 144 263 266 263 270 0 5 -12 6
-27 3 -16 -4 -44 -8 -63 -11 -19 -2 -53 -7 -75 -10 -62 -10 -86 -13 -145 -20
-30 -3 -80 -10 -110 -15 -55 -9 -93 -14 -185 -26 -27 -3 -67 -9 -88 -14 -28
-6 -36 -5 -29 3 5 7 102 128 215 269 114 141 207 260 207 265 0 4 -80 88 -177
185 l-177 177 503 503 503 503 192 -192 193 -192 44 77 c24 42 49 86 56 97 7
11 15 27 19 35 4 8 15 27 25 41 18 25 18 26 -14 65 -17 21 -34 41 -37 44 -4 3
-71 82 -151 175 -79 94 -158 186 -176 205 -17 19 -42 49 -54 65 -13 17 -28 35
-34 41 -6 7 -97 112 -201 234 l-189 221 -418 -3 c-230 -2 -419 -4 -420 -5z"/>
<path d="M5727 6473 c-1 -1 -263 -3 -582 -4 -319 -1 -584 -6 -590 -10 -6 -5
-10 -204 -10 -564 l1 -557 214 -214 c118 -118 221 -214 230 -214 9 0 68 9 131
21 63 11 125 22 139 24 14 2 35 6 46 9 12 2 39 7 60 11 83 13 100 16 129 22
17 3 37 7 45 8 8 1 71 12 140 25 69 12 134 24 145 25 11 2 97 17 190 33 94 17
184 33 200 36 17 3 109 19 205 36 202 36 201 36 298 52 l72 12 1 123 c1 68 1
132 1 143 0 46 3 42 -132 195 -76 87 -164 187 -183 209 -10 12 -42 48 -70 80
-29 33 -60 69 -70 80 -51 60 -105 121 -127 146 -58 64 -146 164 -156 179 -7 9
-28 34 -49 55 l-37 39 -120 1 c-66 1 -120 0 -121 -1z"/>
<path d="M4148 6440 c-7 -14 -48 -85 -90 -159 -43 -73 -78 -134 -78 -136 0 -2
-17 -32 -38 -66 -21 -35 -56 -95 -77 -134 -20 -38 -44 -77 -51 -86 -8 -8 -14
-18 -14 -22 0 -3 -44 -82 -98 -175 -54 -93 -102 -175 -106 -183 -4 -8 -12 -23
-19 -34 -19 -32 -103 -176 -127 -220 -12 -22 -80 -139 -150 -260 -70 -121
-153 -266 -186 -323 -32 -57 -69 -119 -80 -140 -12 -20 -30 -39 -40 -44 -11
-4 -85 -19 -166 -33 -194 -35 -197 -36 -216 -70 -9 -17 -20 -31 -24 -33 -5 -2
-8 -8 -8 -12 0 -5 -27 -52 -60 -105 -33 -53 -60 -99 -60 -103 0 -4 -35 -15
-79 -25 -78 -17 -79 -18 -127 -79 -76 -96 -77 -97 -56 -92 9 2 103 15 207 29
105 14 201 28 215 30 33 5 94 13 150 21 24 3 49 8 54 11 19 12 -7 -34 -192
-341 -103 -171 -192 -320 -198 -331 -6 -11 -165 -274 -352 -585 -438 -726
-522 -867 -522 -873 0 -3 19 0 42 8 24 7 68 21 100 29 l56 16 107 168 c59 92
162 254 230 361 68 106 143 223 166 260 23 36 69 107 101 157 l58 91 113 42
c61 23 148 54 192 70 l80 28 247 492 c135 271 248 494 250 496 4 5 109 26 293
60 77 15 150 28 163 31 57 11 80 15 112 20 19 3 40 7 47 9 9 3 11 -64 10 -272
l-1 -275 72 -70 72 -70 -6 -1062 c-3 -583 -7 -1259 -8 -1501 l-3 -440 68 -87
c38 -48 74 -96 81 -107 7 -12 16 -21 20 -21 5 0 8 59 8 132 l0 132 126 200
127 201 2 235 c8 699 18 1673 17 1723 -1 50 -5 62 -29 85 -15 15 -41 43 -58
62 l-30 35 0 582 c0 320 3 584 5 586 3 3 52 15 110 27 58 12 114 23 125 26 11
2 34 7 50 10 17 3 50 10 75 15 25 6 54 12 65 15 11 2 65 13 120 24 55 11 109
22 120 24 11 3 110 23 220 46 110 23 209 44 220 46 11 3 31 7 45 10 14 3 79
16 145 29 66 14 129 27 140 29 11 2 56 12 100 21 44 10 118 25 165 35 l85 17
125 125 c117 116 129 126 180 138 30 6 102 23 160 37 58 14 113 27 124 29 10
2 28 11 39 21 41 35 59 55 55 59 -3 2 -42 -3 -89 -12 -46 -8 -95 -17 -109 -19
-36 -5 -201 -34 -230 -40 -14 -3 -41 -8 -60 -11 -19 -3 -46 -7 -60 -10 -69
-13 -309 -55 -340 -59 -19 -3 -69 -12 -110 -20 -41 -8 -192 -35 -335 -61 -143
-25 -307 -54 -365 -64 -58 -10 -121 -21 -140 -24 -19 -4 -96 -17 -170 -31 -74
-13 -148 -26 -165 -29 -16 -3 -41 -8 -55 -10 -14 -3 -41 -8 -60 -10 -19 -3
-44 -7 -55 -10 -11 -2 -40 -7 -65 -11 -25 -4 -53 -9 -62 -11 -17 -3 -18 46
-18 917 l0 919 -32 1 c-18 0 -65 2 -105 3 -68 2 -73 1 -85 -24z m-218 -1300
l0 -570 -27 -2 c-16 0 -32 -2 -38 -3 -5 -1 -39 -5 -75 -9 -36 -5 -73 -10 -82
-11 -9 -2 -45 -6 -80 -10 -35 -3 -75 -8 -90 -11 -26 -5 -29 -1 -71 88 -65 138
-65 122 1 244 33 60 83 154 112 209 29 55 65 123 80 150 15 28 56 104 91 170
35 66 73 138 85 160 12 22 37 68 54 103 18 34 34 62 36 62 2 0 4 -256 4 -570z"/>
<path d="M6745 4789 c-16 -4 -75 -18 -130 -30 l-100 -23 -129 -128 c-71 -70
-134 -128 -140 -129 -16 -1 -34 -4 -222 -44 -93 -19 -180 -37 -194 -40 -14 -3
-124 -25 -245 -51 -121 -25 -229 -47 -240 -49 -11 -2 -101 -21 -200 -41 l-180
-37 -187 -186 c-104 -102 -188 -190 -188 -194 0 -5 157 -166 348 -357 191
-191 354 -355 361 -364 11 -13 -27 -56 -298 -326 -171 -171 -314 -318 -319
-328 -5 -9 -9 -150 -11 -312 l-2 -295 133 132 c73 73 546 545 1052 1049 l919
916 3 212 c7 525 7 626 3 629 -2 2 -17 1 -34 -4z"/>
<path d="M3209 2464 l-367 -366 -232 232 -232 232 -44 -67 c-24 -37 -44 -69
-44 -71 0 -3 -10 -18 -22 -34 l-22 -30 35 -36 c19 -20 60 -62 93 -93 32 -31
90 -87 130 -125 135 -130 549 -531 587 -568 l37 -37 2 -118 c1 -65 3 -167 6
-228 l4 -110 180 -180 180 -180 190 190 190 190 4 726 4 726 -157 157 -156
156 -366 -366z"/>
</g>
</svg>
