<svg width="40" height="29" viewBox="0 0 40 29" fill="none" xmlns="http://www.w3.org/2000/svg">
<path d="M37.567 5.69935C37.369 4.90837 36.9658 4.18364 36.3981 3.59836C35.8303 3.01308 35.1182 2.58799 34.3336 2.36602C31.467 1.66602 20.0003 1.66602 20.0003 1.66602C20.0003 1.66602 8.53363 1.66602 5.66697 2.43268C4.88238 2.65466 4.17026 3.07975 3.60255 3.66503C3.03483 4.2503 2.63162 4.97503 2.43364 5.76602C1.90899 8.67527 1.65236 11.6265 1.66697 14.5827C1.64827 17.5611 1.90491 20.5348 2.43364 23.466C2.6519 24.2324 3.06415 24.9296 3.63054 25.4901C4.19694 26.0507 4.89834 26.4557 5.66697 26.666C8.53363 27.4327 20.0003 27.4327 20.0003 27.4327C20.0003 27.4327 31.467 27.4327 34.3336 26.666C35.1182 26.444 35.8303 26.0189 36.3981 25.4337C36.9658 24.8484 37.369 24.1237 37.567 23.3327C38.0876 20.4453 38.3442 17.5166 38.3336 14.5827C38.3523 11.6043 38.0957 8.63051 37.567 5.69935V5.69935Z" stroke="#80FFEC" stroke-width="2" stroke-linecap="round" stroke-linejoin="round"/>
</svg>
